<?xml version="1.0" encoding="UTF-8" standalone="no"?>
<svg
   xmlns:dc="http://purl.org/dc/elements/1.1/"
   xmlns:cc="http://creativecommons.org/ns#"
   xmlns:rdf="http://www.w3.org/1999/02/22-rdf-syntax-ns#"
   xmlns:svg="http://www.w3.org/2000/svg"
   xmlns="http://www.w3.org/2000/svg"
   xmlns:sodipodi="http://sodipodi.sourceforge.net/DTD/sodipodi-0.dtd"
   xmlns:inkscape="http://www.inkscape.org/namespaces/inkscape"
   width="100"
   height="125"
   viewBox="0 0 74.999947 93.750291"
   version="1.1"
   id="svg3"
   sodipodi:docname="abschlusse.svg"
   inkscape:version="0.92.1 r15371">
  <metadata
     id="metadata9">
    <rdf:RDF>
      <cc:Work
         rdf:about="">
        <dc:format>image/svg+xml</dc:format>
        <dc:type
           rdf:resource="http://purl.org/dc/dcmitype/StillImage" />
        <dc:title></dc:title>
      </cc:Work>
    </rdf:RDF>
  </metadata>
  <defs
     id="defs7" />
  <sodipodi:namedview
     pagecolor="#ffffff"
     bordercolor="#666666"
     borderopacity="1"
     objecttolerance="10"
     gridtolerance="10"
     guidetolerance="10"
     inkscape:pageopacity="0"
     inkscape:pageshadow="2"
     inkscape:window-width="1366"
     inkscape:window-height="705"
     id="namedview5"
     showgrid="false"
     inkscape:zoom="4.0679968"
     inkscape:cx="31.052953"
     inkscape:cy="58.505409"
     inkscape:window-x="-8"
     inkscape:window-y="-8"
     inkscape:window-maximized="1"
     inkscape:current-layer="flowRoot830"
     units="px" />
  <g
     aria-label="1"
     transform="matrix(0.11249575,0,0,0.11249575,-6.9899432,-63.485999)"
     style="font-style:normal;font-weight:normal;font-size:40px;line-height:1.25;font-family:sans-serif;letter-spacing:0px;word-spacing:0px;fill:#d8d5d7;fill-opacity:1;stroke:#000000;stroke-opacity:1"
     id="flowRoot830">
    <path
       d="M 168.1709,1251.169 V 1149.1494 790.86635 711.92261 c 0.0367,-21.90996 14.13702,-29.11203 34.00652,-29.14847 h 315.77499 52.22429 c 8.61095,0 20.12456,-0.68014 27.93394,3.25491 12.87391,6.50983 15.76443,18.80075 15.78875,31.96616 v 426.29619 80.1583 c 0,10.6634 1.25096,29.5856 -2.86629,38.8646 -5.06453,11.4286 -12.0359,13.4689 -22.63865,17.0032 v 0 l -287.841,1.2145 h -91.08891 -10.69056 l -6.3127,-2.429 v 0 c -16.23813,-0.8016 -24.2661,-12.6067 -24.29038,-27.934 z M 193.67579,738.64201 V 1206.2319 H 587.17994 V 738.64201 Z m 142.09874,225.58482 c 9.93478,-5.1253 32.76769,-18.2057 42.50816,-20.9627 6.65558,-1.5667 8.80525,1.6639 17.00326,0 6.61914,-1.7002 17.79271,-8.198 12.61887,-16.3231 -5.81753,-9.121 -20.96259,-10.2505 -29.59786,-4.8945 -8.55018,5.2832 -5.47746,10.5056 -10.09265,14.137 l -15.43652,8.028 -31.57749,15.7888 -18.21778,9.6797 c -3.81361,0.6437 -9.80119,-3.1335 -13.35972,-4.761 l -32.79202,-15.2543 -24.29038,-11.5501 c -2.56262,-1.3117 -7.14136,-3.425 -7.95509,-6.437 -1.3967,-5.2102 12.61883,-10.5298 16.45672,-12.2423 l 57.0824,-27.38741 55.86788,-26.18503 c 8.34375,-4.1658 26.54937,-13.72407 35.22103,-14.14913 9.49755,-0.46154 29.95004,9.91045 38.86462,14.52563 l 68.01309,32.41554 46.15173,21.8978 c 3.41279,1.6153 14.10058,5.8661 14.1613,10.0562 0.0729,4.5544 -10.54204,8.7931 -14.1613,10.542 l -47.36624,22.3471 -38.86462,18.9465 -30.36299,13.9792 c -8.73238,4.36007 -25.90567,14.17337 -35.22103,14.17337 -7.18997,0 -21.15695,-7.1535 -27.93396,-10.5299 l -19.43229,-9.64317 c -11.93874,-5.4776 -16.12881,-6.0484 -27.93396,-13.7363 5.35603,-6.0726 13.5662,-8.8052 20.64684,-12.4609 z m -32.79201,17.319 -9.71618,51.00977 -6.50979,-12.1452 -0.77729,-15.7887 v -29.14847 z m 61.94044,30.66657 c 7.42071,3.68 15.95878,9.0603 24.29038,9.364 11.19789,0.4007 21.6306,-7.1536 31.5775,-11.7202 l 43.72271,-20.79247 c 9.57039,-4.7852 18.76432,-10.6271 29.14843,-13.5905 v 35.22107 c 0,3.2306 0.13364,6.5827 -0.77729,9.7161 -3.25491,11.3558 -16.21381,22.4079 -25.94211,28.4076 -21.05974,12.9953 -45.37445,22.5658 -70.44212,22.6022 h -14.57419 c -13.37189,-0.024 -26.29435,-3.34 -38.86462,-7.7 -3.46139,-1.2024 -11.51368,-3.9351 -13.86982,-6.4491 -3.06061,-3.2671 -4.12936,-15.1451 -4.85805,-19.8574 l -7.99158,-47.36617 z m -52.92871,8.198 7.36,57.0825 c 0.36435,2.1375 0.60726,3.9593 0,6.0725 -1.5789,4.263 -7.72434,11.0764 -12.72819,9.3275 -11.02782,-3.8621 -8.07653,-16.5661 -7.38428,-25.1163 l 8.59879,-74.08557 c 2.47763,6.0604 3.1942,19.68737 4.15368,26.71937 z m 84.50621,241.0092 c 12.71603,-3.3399 17.68339,-20.9019 9.24248,-30.7759 -5.75677,-6.7163 -13.2868,-6.8257 -21.38765,-5.7204 -24.15678,7.7972 -13.03182,43.1276 12.14517,36.4963 z"
       id="Auswahl"
       inkscape:connector-curvature="0"
       style="fill:none;fill-opacity:1;stroke:#000000;stroke-width:1.21451914"
       sodipodi:nodetypes="ccccccscccscccccccccccccccccccccccccccccccccccccccscccccccccccccccscccccccccccccccccccc" />
  </g>
</svg>
