<?xml version="1.0" encoding="UTF-8" standalone="no"?>
<svg
   xmlns:dc="http://purl.org/dc/elements/1.1/"
   xmlns:cc="http://creativecommons.org/ns#"
   xmlns:rdf="http://www.w3.org/1999/02/22-rdf-syntax-ns#"
   xmlns:svg="http://www.w3.org/2000/svg"
   xmlns="http://www.w3.org/2000/svg"
   xmlns:sodipodi="http://sodipodi.sourceforge.net/DTD/sodipodi-0.dtd"
   xmlns:inkscape="http://www.inkscape.org/namespaces/inkscape"
   width="100"
   height="125"
   viewBox="0 0 74.999947 93.750291"
   version="1.1"
   id="svg3"
   sodipodi:docname="hoeren.svg"
   inkscape:version="0.92.1 r15371"
   inkscape:export-filename="C:\Sascha\arbeit\Projekte\language College\Medien\Webbilder\Icons\kursicons\lesen.png"
   inkscape:export-xdpi="96"
   inkscape:export-ydpi="96">
  <metadata
     id="metadata9">
    <rdf:RDF>
      <cc:Work
         rdf:about="">
        <dc:format>image/svg+xml</dc:format>
        <dc:type
           rdf:resource="http://purl.org/dc/dcmitype/StillImage" />
        <dc:title></dc:title>
      </cc:Work>
    </rdf:RDF>
  </metadata>
  <defs
     id="defs7" />
  <sodipodi:namedview
     pagecolor="#ffffff"
     bordercolor="#666666"
     borderopacity="1"
     objecttolerance="10"
     gridtolerance="10"
     guidetolerance="10"
     inkscape:pageopacity="0"
     inkscape:pageshadow="2"
     inkscape:window-width="1366"
     inkscape:window-height="705"
     id="namedview5"
     showgrid="false"
     inkscape:zoom="4.0679968"
     inkscape:cx="28.435069"
     inkscape:cy="60.902164"
     inkscape:window-x="-8"
     inkscape:window-y="-8"
     inkscape:window-maximized="1"
     inkscape:current-layer="flowRoot830"
     units="px" />
  <g
     aria-label="1"
     transform="matrix(0.11249575,0,0,0.11249575,-6.9899432,-63.485999)"
     style="font-style:normal;font-weight:normal;font-size:40px;line-height:1.25;font-family:sans-serif;letter-spacing:0px;word-spacing:0px;fill:#d8d5d7;fill-opacity:1;stroke:#000000;stroke-opacity:1"
     id="flowRoot830">
    <path
       d="M 174.7264,1251.169 V 1149.1494 790.86636 711.92262 c 0.0367,-21.90996 14.13702,-29.11203 34.00652,-29.14847 h 315.77499 52.22429 c 8.61095,0 20.12456,-0.68014 27.93394,3.25491 12.87391,6.50983 15.76443,18.80075 15.78875,31.96616 v 426.29618 80.1583 c 0,10.6634 1.25096,29.5856 -2.86629,38.8646 -5.06453,11.4286 -12.0359,13.4689 -22.63865,17.0032 v 0 l -287.841,1.2145 h -91.08891 -10.69056 l -6.3127,-2.429 v 0 c -16.23813,-0.8016 -24.2661,-12.6067 -24.29038,-27.934 z M 200.23129,738.64202 V 1206.2319 H 593.73544 V 738.64202 Z m 202.82467,522.77758 c 12.71603,-3.3399 17.68339,-20.9019 9.24248,-30.7759 -5.75677,-6.7163 -13.2868,-6.8257 -21.38765,-5.7204 -24.15678,7.7972 -13.03182,43.1276 12.14517,36.4963 z"
       id="Auswahl"
       inkscape:connector-curvature="0"
       style="fill:#ffffff;fill-opacity:1;stroke:#000000;stroke-width:1.21451914"
       sodipodi:nodetypes="ccccccscccscccccccccccccccccc" />
    <path
       d="m 439.97782,810.33831 c 4.25303,-0.3443 5.48147,0.18615 9.30641,0.55838 6.10503,0.59563 10.66516,0.8283 16.75156,2.47551 19.02231,5.13714 35.06657,17.74735 45.97368,33.97772 9.27849,13.79211 15.06708,32.06989 17.69149,48.39335 0,0 2.24284,25.12727 2.24284,25.12727 -1.08884,15.3557 -2.78261,30.2366 -8.62705,44.6708 -5.43494,13.4106 -18.38016,31.7163 -27.75172,42.80946 0,0 -19.29218,21.4048 -19.29218,21.4048 -5.88167,5.956 -13.37333,12.6381 -17.90554,19.5434 -6.9705,10.6187 -7.03564,24.8854 -12.27516,37.2257 -11.04673,26.0207 -32.94468,37.4676 -60.0915,39.0032 -3.40616,0.1955 -5.14647,-0.3165 -8.37577,-0.7073 -20.67884,-2.4755 -35.33646,-14.0992 -40.80865,-34.5733 -1.71235,-6.4122 -3.26653,-17.6077 -2.89432,-24.1967 0.27922,-4.8487 2.16846,-9.0924 7.40794,-10.023 15.19737,-2.6989 11.13049,15.3277 12.85217,23.9826 3.06181,15.43 12.72186,25.8718 29.0267,26.058 6.34698,0.065 9.66004,-0.363 15.82092,-2.0009 4.56942,-1.2285 9.06442,-2.913 13.02895,-5.5373 24.00124,-15.9512 16.68639,-40.3434 30.11557,-60.3986 7.05426,-10.5442 16.9749,-18.8083 25.68567,-27.9193 12.60093,-13.16846 29.49204,-34.58256 36.9744,-51.18516 4.58806,-10.1812 7.60334,-26.97 7.73363,-38.1564 0.31641,-28.05878 -9.62284,-63.12533 -33.50307,-79.99788 -13.73627,-9.7066 -25.59266,-11.39103 -41.87886,-11.20492 -25.45306,0.2978 -47.87222,11.68887 -60.20318,34.43375 -3.84357,7.08215 -5.87238,12.04247 -8.61777,19.54345 -1.07954,2.96877 -3.0711,9.81825 -4.55083,12.0332 -4.0483,6.1329 -13.0755,6.3469 -16.23037,0 -2.16842,-3.95523 -0.99582,-7.17527 0,-11.10255 2.0567,-6.72854 4.94169,-14.13645 7.91044,-20.4741 3.74117,-7.96629 5.90026,-13.18718 11.31661,-20.47412 11.96803,-16.10942 27.63072,-25.73225 47.10905,-30.09693 0,0 22.3354,-3.19213 22.3354,-3.19213 0,0 3.72254,0 3.72254,0 z m 30.39477,86.41936 c -2.05673,-2.3452 -5.3512,-4.59734 -8.05938,-6.1701 -2.80122,-1.61934 -5.23018,-2.5593 -8.37576,-3.31311 -4.72765,-1.14474 -7.61265,-0.73519 -12.09834,1.10747 -14.96471,6.14224 -21.2279,24.93181 -21.40476,39.93381 -0.11164,9.8089 1.47044,18.9944 5.69555,27.9192 0,0 6.52377,11.1677 6.52377,11.1677 3.70396,6.5983 6.73785,17.5426 6.30978,25.1273 -1.00512,17.64496 -13.24303,38.35176 -31.55805,42.32556 -2.6244,0.577 -5.67692,0.5119 -8.37576,0.4839 -4.22512,-0.056 -7.15666,-0.5025 -11.1677,-1.945 -2.62441,-0.9493 -5.24882,-2.2428 -7.42653,-4.0017 -11.81913,-9.5392 -4.59738,-17.766 2.69888,-26.6257 0,0 9.28778,-12.09836 9.28778,-12.09836 1.81474,-2.7733 4.56946,-7.7801 4.21578,-11.1677 -0.60488,-5.7513 -6.74713,-9.0551 -10.61861,-12.3961 -5.20227,-4.4857 -8.69219,-11.3073 -8.08726,-18.315 1.22844,-14.1923 11.02809,-20.4368 17.20755,-31.6419 7.47304,-13.5687 6.17018,-19.93422 9.76244,-27.91919 5.83512,-12.97309 16.66777,-19.59928 30.42266,-21.5257 2.72676,-0.38156 4.6346,-0.83758 7.44512,-0.64214 29.96667,2.14046 47.54648,27.78897 44.00073,56.60163 -0.82826,6.7285 -1.42389,19.5341 -7.70569,23.266 0,-13.5967 0.55838,-39.6546 -8.6922,-50.17087 z m -143.00231,15.23457 c 8.83173,7.2776 15.77432,17.8591 20.05527,28.4218 10.36737,25.5927 7.36136,54.9451 -9.24127,77.24316 -3.97383,5.3419 -11.34449,13.5595 -17.32852,16.4724 -7.00775,3.4155 -12.00525,-2.3266 -10.44181,-7.166 0.99578,-3.0804 4.40196,-5.4907 6.71922,-7.6033 3.24799,-2.9501 7.87327,-7.5288 10.46044,-11.0095 11.88428,-15.97906 15.02986,-37.82116 9.34364,-56.76906 -2.65236,-8.8132 -7.91045,-17.5612 -14.25746,-24.1967 0,0 -11.37238,-10.5348 -11.37238,-10.5348 -2.88501,-3.9273 -1.2378,-7.2683 2.15907,-9.9207 6.05847,-2.0008 9.35288,1.3122 13.9038,5.0627 z m -2.14982,32.1444 c 9.12032,19.9064 7.64987,40.7341 -3.32235,59.56096 -3.48063,5.984 -12.06115,15.8024 -18.72455,17.9614 -5.36979,1.7403 -10.38592,-1.8333 -8.8876,-7.6871 0.88407,-3.4899 4.4764,-5.3884 7.0263,-7.6499 4.0948,-3.6388 7.02639,-7.23096 9.80894,-11.93076 8.13385,-13.699 8.27342,-33.7916 0,-47.4627 -5.38835,-8.8969 -7.78944,-9.0551 -14.24808,-15.3649 -4.42059,-4.3181 -3.61088,-8.9527 1.66583,-11.8284 10.79547,-1.5821 22.74491,15.8023 26.68151,24.4014 z m -21.85145,4.6532 c 8.20823,15.2998 7.2404,35.4202 -3.48062,49.3239 -3.09903,4.02976 -9.13887,10.00446 -14.39704,10.75826 -5.22083,0.7538 -8.68282,-4.039 -6.88673,-8.8597 1.396,-3.75046 5.8072,-5.41626 9.37159,-9.42736 4.50427,-5.0627 6.73785,-11.8378 6.82161,-18.5291 0.0838,-7.4638 -0.75382,-13.6059 -5.77927,-19.5435 -5.92822,-7.0076 -12.19147,-8.6829 -10.99092,-14.8716 0.61425,-3.1176 2.03812,-3.9273 4.70904,-4.9882 8.98999,-0.4933 16.74225,8.8876 20.63234,16.1373 z"
       id="Auswahl-8"
       inkscape:connector-curvature="0"
       style="fill:#ffffff;fill-opacity:1;stroke:#000000;stroke-width:0.93064129" />
  </g>
</svg>
