<?xml version="1.0" encoding="UTF-8" standalone="no"?>
<svg
   xmlns:dc="http://purl.org/dc/elements/1.1/"
   xmlns:cc="http://creativecommons.org/ns#"
   xmlns:rdf="http://www.w3.org/1999/02/22-rdf-syntax-ns#"
   xmlns:svg="http://www.w3.org/2000/svg"
   xmlns="http://www.w3.org/2000/svg"
   xmlns:sodipodi="http://sodipodi.sourceforge.net/DTD/sodipodi-0.dtd"
   xmlns:inkscape="http://www.inkscape.org/namespaces/inkscape"
   width="100"
   height="125"
   viewBox="0 0 74.999947 93.750291"
   version="1.1"
   id="svg3"
   sodipodi:docname="HörenLogoKursD.svg"
   inkscape:version="0.92.1 r15371"
   inkscape:export-filename="C:\Sascha\arbeit\Projekte\language College\Medien\Webbilder\Icons\kursicons\lesen.png"
   inkscape:export-xdpi="96"
   inkscape:export-ydpi="96">
  <metadata
     id="metadata9">
    <rdf:RDF>
      <cc:Work
         rdf:about="">
        <dc:format>image/svg+xml</dc:format>
        <dc:type
           rdf:resource="http://purl.org/dc/dcmitype/StillImage" />
        <dc:title></dc:title>
      </cc:Work>
    </rdf:RDF>
  </metadata>
  <defs
     id="defs7" />
  <sodipodi:namedview
     pagecolor="#ffffff"
     bordercolor="#666666"
     borderopacity="1"
     objecttolerance="10"
     gridtolerance="10"
     guidetolerance="10"
     inkscape:pageopacity="0"
     inkscape:pageshadow="2"
     inkscape:window-width="1366"
     inkscape:window-height="705"
     id="namedview5"
     showgrid="false"
     inkscape:zoom="2.0339984"
     inkscape:cx="-42.063423"
     inkscape:cy="49.651296"
     inkscape:window-x="-8"
     inkscape:window-y="-8"
     inkscape:window-maximized="1"
     inkscape:current-layer="flowRoot830"
     units="px" />
  <g
     aria-label="1"
     transform="matrix(0.11249575,0,0,0.11249575,-6.9899432,-63.485999)"
     style="font-style:normal;font-weight:normal;font-size:40px;line-height:1.25;font-family:sans-serif;letter-spacing:0px;word-spacing:0px;fill:#d8d5d7;fill-opacity:1;stroke:#000000;stroke-opacity:1"
     id="flowRoot830">
    <path
       d="M 102.82356,1342.1884 V 1205.2811 724.47562 618.53542 c 0.0492,-29.40252 18.97146,-39.0675 45.63575,-39.1164 h 423.76082 70.08348 c 11.55564,0 27.00657,-0.91273 37.48653,4.368 17.27641,8.736 21.15541,25.23006 21.18804,42.89765 v 572.07703 107.5701 c 0,14.31 1.67875,39.7031 -3.84647,52.1552 -6.79645,15.3369 -16.15183,18.0749 -30.38041,22.8178 v 0 l -386.27423,1.6298 H 158.23841 143.89199 l -8.47146,-3.2596 v 0 c -21.79109,-1.0757 -32.56439,-16.9178 -32.59697,-37.4866 z M 137.05037,654.39208 V 1281.8841 H 665.12146 V 654.39208 Z m 272.18479,701.55232 c 17.06454,-4.4821 23.7306,-28.0497 12.40314,-41.3004 -7.72542,-9.0131 -17.8305,-9.1598 -28.7016,-7.6766 -32.4177,10.4636 -17.48832,57.876 16.29846,48.977 z"
       id="Auswahl"
       inkscape:connector-curvature="0"
       style="fill:#ffffff;fill-opacity:1;stroke:#000000;stroke-width:1.6298492"
       sodipodi:nodetypes="ccccccscccscccccccccccccccccc" />
    <path
       d="m 458.78322,750.60641 c 5.70745,-0.46205 7.35598,0.24981 12.48893,0.74933 8.19278,0.79932 14.31234,1.11155 22.48011,3.32206 25.52738,6.89389 47.05831,23.81643 61.69533,45.59711 12.45147,18.5086 20.21959,43.03686 23.74147,64.94246 0,0 3.00983,33.7201 3.00983,33.7201 -1.4612,20.6068 -3.73419,40.5766 -11.57725,59.9469 -7.29353,17.9966 -24.66564,42.56233 -37.242,57.44913 0,0 -25.88955,28.7245 -25.88955,28.7245 -7.89302,7.9929 -17.94662,16.96 -24.02871,26.2268 -9.35421,14.2499 -9.44162,33.3954 -16.47291,49.9558 -14.82438,34.919 -44.2108,50.2804 -80.64104,52.3411 -4.57096,0.2623 -6.90641,-0.4247 -11.24003,-0.9492 -27.75041,-3.322 -47.42051,-18.9207 -54.76402,-46.3964 -2.29793,-8.6049 -4.38359,-23.629 -3.88409,-32.4712 0.3747,-6.5068 2.91,-12.2017 9.94124,-13.4506 20.39442,-3.6218 14.93678,20.5693 17.24723,32.184 4.10886,20.7066 17.07237,34.7192 38.95298,34.969 8.51747,0.087 12.9635,-0.4871 21.23122,-2.6851 6.13203,-1.6486 12.16418,-3.9091 17.48447,-7.4309 32.20896,-21.4061 22.39265,-54.1396 40.41421,-81.0532 9.46662,-14.15 22.77982,-25.2401 34.46943,-37.4668 16.91007,-17.6718 39.57745,-46.40893 49.61856,-68.68913 6.15704,-13.6629 10.20346,-36.1929 10.37831,-51.2047 0.42461,-37.6541 -12.91357,-84.71239 -44.96015,-107.35486 -18.43367,-13.02597 -34.3446,-15.28643 -56.20021,-15.03667 -34.15726,0.39964 -64.24312,15.68612 -80.79091,46.20908 -5.15795,9.50404 -7.88056,16.16065 -11.56479,26.22675 -1.44871,3.984 -4.12133,13.1758 -6.10708,16.1482 -5.4327,8.2302 -17.54694,8.5174 -21.78068,0 -2.90996,-5.3078 -1.33636,-9.629 0,-14.8993 2.76003,-9.0295 6.6316,-18.9707 10.61558,-27.47565 5.02054,-10.69052 7.91797,-17.69681 15.18655,-27.47566 16.06075,-21.61838 37.07963,-34.53194 63.21897,-40.38921 0,0 29.97346,-4.28374 29.97346,-4.28374 0,0 4.99554,0 4.99554,0 z m 40.7889,115.97226 c -2.76008,-3.1472 -7.18116,-6.1695 -10.81545,-8.2801 -3.75916,-2.1731 -7.01876,-3.4345 -11.24003,-4.4461 -6.34437,-1.5362 -10.21595,-0.9866 -16.23562,1.4862 -20.08221,8.2427 -28.48722,33.4578 -28.72456,53.59 -0.14982,13.1633 1.97328,25.4899 7.64326,37.4668 0,0 8.75471,14.9867 8.75471,14.9867 4.9706,8.8547 9.04199,23.5417 8.46753,33.7201 -1.34883,23.67903 -17.77175,51.46693 -42.34997,56.79973 -3.52188,0.7743 -7.61827,0.6869 -11.24003,0.6494 -5.66999,-0.075 -9.60403,-0.6744 -14.98673,-2.6102 -3.52188,-1.2739 -7.04376,-3.0098 -9.96619,-5.3702 -15.86093,-12.8012 -6.16955,-23.8414 3.62182,-35.7309 0,0 12.46393,-16.23563 12.46393,-16.23563 2.43533,-3.7217 6.13208,-10.4407 5.65746,-14.9867 -0.81174,-7.7181 -9.05446,-12.1517 -14.24987,-16.6353 -6.9813,-6.0196 -11.66467,-15.174 -10.85287,-24.5782 1.64853,-19.0456 14.79938,-27.4256 23.09204,-42.4624 10.0286,-18.2088 8.28019,-26.7512 13.10091,-37.4668 7.83055,-17.4095 22.36765,-26.30165 40.82632,-28.88686 3.65923,-0.51204 6.21949,-1.12401 9.99113,-0.86173 40.2144,2.87243 63.80599,37.29199 59.0477,75.95769 -1.11151,9.0295 -1.91082,26.2143 -10.34082,31.2223 0,-18.2463 0.74933,-53.2153 -11.66467,-67.3278 z m -191.90493,20.4444 c 11.85192,9.7663 21.16867,23.9663 26.91359,38.1412 13.9127,34.3446 9.87873,73.7347 -12.40152,103.65813 -5.33277,7.1687 -15.22397,18.1964 -23.25437,22.1054 -9.4042,4.5835 -16.1107,-3.1222 -14.0126,-9.6165 1.3363,-4.1338 5.9073,-7.3684 9.017,-10.2034 4.3587,-3.959 10.5657,-10.1035 14.0376,-14.7744 15.94836,-21.44353 20.16963,-50.75503 12.53889,-76.18253 -3.55939,-11.827 -10.61559,-23.5666 -19.13309,-32.4712 0,0 -15.2614,-14.1375 -15.2614,-14.1375 -3.8716,-5.2703 -1.6611,-9.7538 2.8974,-13.3132 8.1303,-2.6851 12.5513,1.7609 18.6585,6.794 z m -2.885,43.1368 c 12.2392,26.7138 10.2659,54.664 -4.4585,79.92913 -4.6709,8.0304 -16.1857,21.2063 -25.1278,24.1037 -7.2061,2.3354 -13.9376,-2.4603 -11.9269,-10.3159 1.1864,-4.6833 6.0072,-7.2311 9.4291,-10.2659 5.4951,-4.8832 9.4292,-9.7039 13.1633,-16.01083 10.9154,-18.3837 11.1027,-45.3473 0,-63.6936 -7.231,-11.9394 -10.4532,-12.1517 -19.1205,-20.6192 -5.9323,-5.7948 -4.8457,-12.0143 2.2355,-15.8734 14.4872,-2.1231 30.523,21.2062 35.8058,32.746 z m -29.324,6.2444 c 11.0152,20.5319 9.7164,47.5329 -4.6709,66.19133 -4.1588,5.4078 -12.2641,13.4257 -19.3204,14.4373 -7.0062,1.0116 -11.6521,-5.4202 -9.2418,-11.8895 1.8734,-5.033 7.7931,-7.26853 12.5764,-12.65133 6.0446,-6.7939 9.042,-15.8859 9.1544,-24.8654 0.1124,-10.0162 -1.0116,-18.2588 -7.7556,-26.2268 -7.9555,-9.4041 -16.3606,-11.6522 -14.7495,-19.9573 0.8243,-4.1838 2.7351,-5.2704 6.3194,-6.6941 12.0643,-0.6619 22.4676,11.927 27.688,21.6558 z"
       id="Auswahl-8"
       inkscape:connector-curvature="0"
       style="fill:#ffffff;stroke:#000000;stroke-width:1.2488935;fill-opacity:1" />
  </g>
</svg>
