<?xml version="1.0" encoding="UTF-8" standalone="no"?>
<svg
   xmlns:dc="http://purl.org/dc/elements/1.1/"
   xmlns:cc="http://creativecommons.org/ns#"
   xmlns:rdf="http://www.w3.org/1999/02/22-rdf-syntax-ns#"
   xmlns:svg="http://www.w3.org/2000/svg"
   xmlns="http://www.w3.org/2000/svg"
   xmlns:sodipodi="http://sodipodi.sourceforge.net/DTD/sodipodi-0.dtd"
   xmlns:inkscape="http://www.inkscape.org/namespaces/inkscape"
   width="27.7778in"
   height="14.8194in"
   viewBox="0 0 2000 1067"
   version="1.1"
   id="svg3"
   sodipodi:docname="lcmainlogowhite.svg"
   inkscape:version="0.92.1 r15371">
  <metadata
     id="metadata9">
    <rdf:RDF>
      <cc:Work
         rdf:about="">
        <dc:format>image/svg+xml</dc:format>
        <dc:type
           rdf:resource="http://purl.org/dc/dcmitype/StillImage" />
        <dc:title></dc:title>
      </cc:Work>
    </rdf:RDF>
  </metadata>
  <defs
     id="defs7" />
  <sodipodi:namedview
     pagecolor="#ffffff"
     bordercolor="#666666"
     borderopacity="1"
     objecttolerance="10"
     gridtolerance="10"
     guidetolerance="10"
     inkscape:pageopacity="0"
     inkscape:pageshadow="2"
     inkscape:window-width="1366"
     inkscape:window-height="705"
     id="namedview5"
     showgrid="false"
     inkscape:zoom="0.35956352"
     inkscape:cx="1413.3056"
     inkscape:cy="722.49953"
     inkscape:window-x="-8"
     inkscape:window-y="-8"
     inkscape:window-maximized="1"
     inkscape:current-layer="svg3" />
  <path
     id="Auswahl #1"
     fill="none"
     stroke="black"
     stroke-width="1"
     d="M 542.00,257.02            C 566.39,259.49 569.51,259.50 594.00,257.02              594.00,257.02 606.00,257.02 606.00,257.02              654.32,250.92 699.81,236.35 745.00,218.75              769.96,209.03 794.85,198.50 821.00,192.50              831.05,190.19 842.64,187.78 853.00,188.01              865.58,188.30 879.73,193.73 891.00,198.99              905.00,205.51 918.75,212.36 931.72,220.85              931.72,220.85 955.00,235.88 955.00,235.88              957.50,237.59 962.99,241.86 966.00,241.51              968.75,241.20 974.60,236.06 977.00,234.23              977.00,234.23 999.00,219.09 999.00,219.09              1016.01,208.18 1041.25,194.80 1061.00,190.52              1061.00,190.52 1069.00,189.41 1069.00,189.41              1074.50,188.54 1077.24,187.80 1083.00,188.04              1098.80,188.70 1114.20,193.85 1129.00,198.92              1129.00,198.92 1175.72,215.60 1175.72,215.60              1175.72,215.60 1200.00,224.09 1200.00,224.09              1234.91,236.62 1265.39,246.59 1302.00,253.46              1302.00,253.46 1318.00,256.71 1318.00,256.71              1318.00,256.71 1326.00,257.35 1326.00,257.35              1354.31,260.66 1363.37,261.38 1392.00,257.35              1400.94,256.19 1399.63,257.07 1409.00,254.00              1409.00,254.00 1442.91,343.00 1442.91,343.00              1442.91,343.00 1512.53,526.00 1512.53,526.00              1512.53,526.00 1525.47,559.00 1525.47,559.00              1525.47,559.00 1551.97,628.83 1551.97,628.83              1551.97,628.83 1572.08,682.00 1572.08,682.00              1572.08,682.00 1586.91,722.00 1586.91,722.00              1593.14,738.14 1600.72,755.94 1603.59,773.00              1606.08,787.84 1606.96,802.74 1592.00,811.36              1583.66,816.17 1570.41,816.11 1561.00,816.00              1561.00,816.00 1551.00,815.09 1551.00,815.09              1522.38,813.00 1497.57,807.71 1470.00,800.16              1431.45,789.60 1394.11,775.29 1357.00,760.45              1357.00,760.45 1307.96,741.60 1307.96,741.60              1261.23,723.40 1198.19,702.30 1148.00,712.67              1095.73,723.46 1047.23,760.47 1009.00,796.09              999.42,805.01 990.16,814.97 981.75,825.00              977.30,830.32 969.99,840.11 964.00,843.00              960.71,836.61 955.91,831.57 951.45,826.00              938.75,810.13 924.36,796.35 910.00,782.00              895.70,767.70 871.55,749.68 854.00,739.40              833.89,727.62 811.88,717.47 789.00,712.52              789.00,712.52 782.00,711.54 782.00,711.54              775.98,710.45 770.16,709.08 764.00,709.00              764.00,709.00 749.00,709.00 749.00,709.00              737.75,709.02 726.81,712.39 716.00,715.11              716.00,715.11 644.00,737.93 644.00,737.93              644.00,737.93 566.00,765.46 566.00,765.46              566.00,765.46 490.00,789.77 490.00,789.77              490.00,789.77 455.00,799.50 455.00,799.50              455.00,799.50 415.00,808.54 415.00,808.54              415.00,808.54 405.00,809.75 405.00,809.75              405.00,809.75 382.00,813.00 382.00,813.00              382.00,813.00 354.00,813.00 354.00,813.00              339.67,812.98 323.64,808.23 321.30,792.00              320.43,785.97 322.00,779.87 323.29,774.00              323.29,774.00 335.73,740.28 335.73,740.28              335.73,740.28 358.15,681.00 358.15,681.00              358.15,681.00 394.06,586.00 394.06,586.00              394.06,586.00 402.91,563.42 402.91,563.42              402.91,563.42 413.74,534.00 413.74,534.00              413.74,534.00 450.53,437.00 450.53,437.00              450.53,437.00 469.91,386.42 469.91,386.42              469.91,386.42 500.63,305.00 500.63,305.00              500.63,305.00 520.00,254.00 520.00,254.00              531.55,257.34 531.43,256.16 542.00,257.02 Z            M 936.00,300.00            C 935.98,287.09 928.93,276.87 920.00,268.01              908.25,256.38 896.68,250.80 881.00,246.29              877.43,245.27 871.56,243.55 868.00,243.17              868.00,243.17 849.00,242.04 849.00,242.04              849.00,242.04 834.00,243.00 834.00,243.00              826.38,243.09 809.70,247.32 802.00,249.58              778.78,256.39 756.45,266.58 734.00,275.55              709.52,285.34 683.97,293.07 658.00,297.43              658.00,297.43 646.00,299.94 646.00,299.94              646.00,299.94 638.00,299.94 638.00,299.94              638.00,299.94 611.00,303.00 611.00,303.00              611.00,303.00 584.00,303.00 584.00,303.00              584.00,303.00 571.00,303.00 571.00,303.00              571.00,303.00 553.00,301.85 553.00,301.85              550.43,301.41 546.88,300.44 544.56,301.85              541.50,304.04 537.62,317.87 535.92,322.00              535.92,322.00 513.14,383.00 513.14,383.00              513.14,383.00 491.53,441.00 491.53,441.00              491.53,441.00 443.31,572.00 443.31,572.00              443.31,572.00 420.36,634.00 420.36,634.00              420.36,634.00 396.26,702.00 396.26,702.00              392.29,714.00 386.70,728.20 387.01,741.00              387.54,762.74 407.15,763.87 424.00,763.26              440.03,762.67 450.73,758.31 465.58,753.08              465.58,753.08 542.00,722.92 542.00,722.92              582.83,706.54 623.69,690.26 666.00,678.09              700.06,668.29 732.34,660.94 768.00,661.00              768.00,661.00 785.00,662.00 785.00,662.00              801.35,662.03 826.15,667.99 842.00,672.77              862.10,678.82 890.04,693.14 906.83,705.67              906.83,705.67 925.00,720.29 925.00,720.29              929.12,723.90 931.37,726.68 936.00,730.00              936.00,730.00 936.00,300.00 936.00,300.00 Z            M 1019.00,711.54            C 1036.93,696.99 1055.64,686.69 1077.00,678.08              1097.10,669.98 1127.36,662.10 1149.00,662.00              1149.00,662.00 1165.00,661.00 1165.00,661.00              1165.00,661.00 1185.00,662.00 1185.00,662.00              1199.65,662.17 1213.74,665.34 1228.00,668.34              1248.78,672.69 1268.79,678.01 1288.91,684.85              1288.91,684.85 1313.00,692.71 1313.00,692.71              1313.00,692.71 1420.00,734.86 1420.00,734.86              1420.00,734.86 1469.09,753.69 1469.09,753.69              1482.76,758.46 1497.34,763.79 1512.00,763.26              1524.74,762.79 1540.89,763.49 1545.36,748.00              1546.20,745.12 1546.03,740.11 1546.00,737.00              1545.86,725.11 1536.98,701.84 1532.71,690.00              1532.71,690.00 1509.42,625.00 1509.42,625.00              1509.42,625.00 1458.47,486.00 1458.47,486.00              1458.47,486.00 1438.05,431.00 1438.05,431.00              1438.05,431.00 1424.50,395.00 1424.50,395.00              1424.50,395.00 1399.06,327.00 1399.06,327.00              1399.06,327.00 1392.53,309.00 1392.53,309.00              1391.64,306.61 1390.89,303.49 1388.61,301.99              1385.88,300.27 1380.27,301.78 1377.00,301.99              1377.00,301.99 1364.00,303.00 1364.00,303.00              1364.00,303.00 1347.00,303.00 1347.00,303.00              1347.00,303.00 1322.00,303.00 1322.00,303.00              1322.00,303.00 1295.00,300.17 1295.00,300.17              1264.00,297.16 1228.90,287.60 1200.00,275.86              1179.56,267.55 1150.48,255.00 1130.00,249.26              1123.05,247.31 1106.66,243.08 1100.00,243.00              1100.00,243.00 1082.00,242.04 1082.00,242.04              1082.00,242.04 1064.00,243.30 1064.00,243.30              1064.00,243.30 1054.00,245.85 1054.00,245.85              1037.55,250.19 1024.10,256.65 1012.01,269.00              1003.63,277.56 997.02,287.76 997.00,300.00              997.00,300.00 997.00,604.00 997.00,604.00              997.00,604.00 997.00,692.00 997.00,692.00              997.00,692.00 997.00,717.00 997.00,717.00              997.00,721.44 996.36,726.88 998.00,731.00              1004.10,722.94 1011.26,717.82 1019.00,711.54 Z            M 1126.40,448.31            C 1127.13,449.79 1127.00,453.29 1127.00,455.00              1127.00,455.00 1127.00,571.00 1127.00,571.00              1127.00,572.90 1127.23,576.89 1125.98,578.36              1124.49,580.12 1121.00,579.26 1119.00,579.00              1110.76,577.92 1107.72,577.20 1100.00,573.99              1081.18,566.16 1067.93,550.51 1062.43,531.00              1057.24,512.59 1060.32,492.02 1070.70,476.00              1074.25,470.52 1079.14,465.52 1084.00,461.17              1086.27,459.14 1090.27,456.57 1091.40,453.83              1092.36,451.49 1091.97,442.10 1092.00,439.00              1092.68,381.10 1136.03,330.86 1192.00,318.79              1198.64,317.36 1206.21,316.08 1213.00,316.00              1235.69,315.74 1253.00,317.83 1274.00,327.31              1313.29,345.04 1341.19,384.53 1346.90,427.00              1346.90,427.00 1346.90,437.00 1346.90,437.00              1346.90,437.00 1348.00,447.00 1348.00,447.00              1348.03,449.93 1347.70,456.55 1348.60,459.00              1348.60,459.00 1362.94,477.01 1362.94,477.01              1368.67,486.10 1372.87,500.24 1373.00,511.00              1373.21,529.48 1366.32,547.58 1353.00,560.50              1353.00,560.50 1333.84,575.21 1333.84,575.21              1333.84,575.21 1323.46,595.00 1323.46,595.00              1315.46,607.36 1303.30,618.19 1290.00,624.52              1280.24,629.16 1273.11,630.10 1270.01,631.51              1265.50,633.56 1264.61,637.07 1259.99,638.49              1259.99,638.49 1236.00,639.00 1236.00,639.00              1228.13,638.89 1222.24,634.59 1223.37,626.00              1224.71,615.81 1233.73,615.01 1242.00,615.00              1242.00,615.00 1251.00,615.00 1251.00,615.00              1262.29,615.14 1262.38,618.95 1268.00,618.38              1270.83,618.09 1276.28,615.99 1279.00,614.85              1295.57,607.87 1309.76,595.72 1317.00,578.94              1317.00,578.94 1307.60,578.94 1307.60,578.94              1307.60,578.94 1306.00,571.00 1306.00,571.00              1306.00,571.00 1306.00,550.00 1306.00,550.00              1306.00,550.00 1306.00,470.00 1306.00,470.00              1306.00,470.00 1306.00,453.00 1306.00,453.00              1306.00,453.00 1307.02,447.60 1307.02,447.60              1307.02,447.60 1313.00,446.17 1313.00,446.17              1313.00,446.17 1326.00,449.00 1326.00,449.00              1326.00,429.37 1324.20,414.92 1315.24,397.00              1308.41,383.33 1301.16,374.62 1290.09,364.18              1249.20,325.60 1182.76,329.34 1144.09,369.04              1123.25,390.43 1113.00,417.36 1113.00,447.00              1116.50,446.72 1124.52,444.49 1126.40,448.31 Z            M 373.00,887.00            C 373.00,887.00 253.00,887.00 253.00,887.00              241.27,886.98 220.86,885.44 216.65,872.00              215.93,869.71 215.96,866.42 216.01,864.00              216.30,851.40 227.59,830.06 233.08,818.00              233.08,818.00 272.12,732.00 272.12,732.00              272.12,732.00 402.53,444.00 402.53,444.00              402.53,444.00 444.42,351.00 444.42,351.00              444.42,351.00 454.35,328.00 454.35,328.00              456.06,324.42 458.86,320.50 463.00,319.66              469.69,318.31 472.09,324.58 472.28,330.00              472.57,338.36 465.80,352.06 462.44,360.00              462.44,360.00 422.97,452.00 422.97,452.00              422.97,452.00 406.95,489.00 406.95,489.00              406.95,489.00 383.86,542.00 383.86,542.00              383.86,542.00 366.43,583.00 366.43,583.00              366.43,583.00 357.16,603.58 357.16,603.58              357.16,603.58 316.86,697.00 316.86,697.00              316.86,697.00 298.35,740.00 298.35,740.00              298.35,740.00 289.77,760.00 289.77,760.00              289.77,760.00 272.58,800.00 272.58,800.00              268.10,810.65 264.82,823.57 271.85,834.00              278.44,843.77 288.54,845.51 299.00,848.27              308.74,850.83 308.86,849.39 317.00,850.17              317.00,850.17 361.00,851.00 361.00,851.00              361.00,851.00 373.00,850.04 373.00,850.04              373.00,850.04 384.00,850.04 384.00,850.04              384.00,850.04 411.00,846.43 411.00,846.43              411.00,846.43 439.00,842.54 439.00,842.54              439.00,842.54 450.00,839.96 450.00,839.96              525.30,826.28 597.27,798.18 672.00,781.99              672.00,781.99 719.00,773.06 719.00,773.06              719.00,773.06 729.00,773.06 729.00,773.06              729.00,773.06 760.00,771.00 760.00,771.00              760.00,771.00 770.00,771.91 770.00,771.91              770.00,771.91 782.00,772.70 782.00,772.70              805.52,773.73 836.75,782.92 858.00,793.10              896.44,811.52 918.20,832.90 948.00,861.99              948.00,861.99 966.00,879.00 966.00,879.00              979.29,858.04 1002.03,839.33 1022.00,824.85              1056.98,799.49 1103.94,778.89 1147.00,773.06              1147.00,773.06 1156.00,773.06 1156.00,773.06              1156.00,773.06 1182.00,771.00 1182.00,771.00              1182.00,771.00 1192.00,771.91 1192.00,771.91              1192.00,771.91 1208.00,772.96 1208.00,772.96              1208.00,772.96 1223.00,775.56 1223.00,775.56              1223.00,775.56 1290.00,789.50 1290.00,789.50              1290.00,789.50 1300.00,792.50 1300.00,792.50              1300.00,792.50 1426.00,825.25 1426.00,825.25              1426.00,825.25 1484.00,838.77 1484.00,838.77              1484.00,838.77 1509.00,843.43 1509.00,843.43              1509.00,843.43 1520.00,845.70 1520.00,845.70              1520.00,845.70 1528.00,846.46 1528.00,846.46              1528.00,846.46 1546.00,849.94 1546.00,849.94              1546.00,849.94 1555.00,849.94 1555.00,849.94              1555.00,849.94 1576.00,852.09 1576.00,852.09              1576.00,852.09 1588.00,853.00 1588.00,853.00              1598.42,853.02 1608.68,852.06 1619.00,850.58              1619.00,850.58 1628.00,849.68 1628.00,849.68              1628.00,849.68 1637.00,847.02 1637.00,847.02              1647.72,843.69 1658.13,839.63 1662.19,828.00              1663.23,825.03 1663.03,821.16 1663.00,818.00              1662.86,806.85 1655.10,792.48 1650.90,782.00              1650.90,782.00 1616.86,703.00 1616.86,703.00              1616.86,703.00 1505.58,447.00 1505.58,447.00              1505.58,447.00 1466.77,358.00 1466.77,358.00              1462.93,349.59 1453.23,332.41 1459.65,324.11              1463.37,319.30 1467.57,319.86 1471.96,323.39              1478.51,328.66 1479.75,334.88 1483.01,342.00              1483.01,342.00 1524.85,435.00 1524.85,435.00              1524.85,435.00 1678.70,775.00 1678.70,775.00              1678.70,775.00 1687.69,795.00 1687.69,795.00              1694.56,810.68 1710.52,841.21 1713.88,856.00              1716.66,868.24 1715.26,879.51 1701.00,882.61              1697.73,883.33 1688.55,883.99 1685.00,884.00              1685.00,884.00 1041.00,884.00 1041.00,884.00              1041.00,884.00 1041.00,925.00 1041.00,925.00              1041.00,925.00 891.00,925.00 891.00,925.00              891.00,925.00 891.00,887.00 891.00,887.00              891.00,887.00 373.00,887.00 373.00,887.00 Z            M 717.00,342.21            C 733.41,342.03 749.82,345.71 765.00,351.80              781.67,358.49 797.08,368.54 810.00,381.04              863.68,432.99 864.39,519.14 814.83,574.00              804.67,585.24 789.55,596.38 776.00,603.24              752.61,615.10 732.90,618.30 707.00,618.00              707.00,618.00 697.04,617.06 697.04,617.06              631.27,610.39 575.79,552.97 575.00,486.00              574.81,469.16 576.10,452.03 581.69,436.00              596.37,393.93 626.93,363.37 669.00,348.69              681.18,344.45 688.86,344.18 701.00,342.21              701.00,342.21 717.00,342.21 717.00,342.21 Z            M 641.00,373.70            C 641.00,373.70 625.00,386.00 625.00,386.00              625.00,386.00 625.00,388.00 625.00,388.00              634.59,393.76 648.26,401.10 659.00,404.00              665.53,388.85 674.76,376.45 685.43,364.00              685.43,364.00 695.00,353.00 695.00,353.00              675.24,355.67 657.64,362.81 641.00,373.70 Z            M 785.00,373.70            C 768.36,362.81 750.76,355.67 731.00,353.00              731.00,353.00 740.57,364.00 740.57,364.00              751.24,376.45 760.47,388.85 767.00,404.00              777.74,401.10 791.41,393.76 801.00,388.00              801.00,388.00 801.00,386.00 801.00,386.00              801.00,386.00 785.00,373.70 785.00,373.70 Z            M 693.58,369.00            C 685.55,378.37 672.36,395.22 669.00,407.00              678.84,410.60 697.41,413.00 708.00,413.00              708.00,413.00 708.00,356.00 708.00,356.00              702.12,358.78 697.76,364.12 693.58,369.00 Z            M 718.00,375.00            C 718.00,375.00 718.00,413.00 718.00,413.00              728.23,413.00 747.54,410.45 757.00,407.00              755.05,400.16 750.90,393.90 747.00,388.00              740.40,378.05 728.54,362.83 719.00,356.00              719.00,356.00 718.00,375.00 718.00,375.00 Z            M 648.42,431.00            C 649.39,427.68 654.30,416.04 652.88,413.50              651.69,411.38 639.06,406.75 636.00,405.24              632.29,403.41 620.25,395.49 617.04,396.41              613.06,397.56 605.10,410.10 602.87,414.00              592.31,432.46 585.00,453.55 585.00,475.00              585.00,475.00 642.00,475.00 642.00,475.00              642.00,459.18 643.98,446.22 648.42,431.00 Z            M 823.13,414.00            C 820.90,410.10 812.94,397.56 808.96,396.41              805.75,395.49 793.71,403.41 790.00,405.24              786.94,406.75 774.31,411.38 773.12,413.50              771.70,416.04 776.61,427.68 777.58,431.00              782.02,446.22 784.00,459.18 784.00,475.00              784.00,475.00 841.00,475.00 841.00,475.00              841.00,453.80 833.57,432.25 823.13,414.00 Z            M 664.00,416.00            C 656.16,435.71 652.00,453.74 652.00,475.00              652.00,475.00 708.00,475.00 708.00,475.00              708.00,475.00 708.00,423.00 708.00,423.00              693.29,422.68 678.11,420.09 664.00,416.00 Z            M 718.00,423.00            C 718.00,423.00 718.00,475.00 718.00,475.00              718.00,475.00 774.00,475.00 774.00,475.00              774.00,453.74 769.84,435.71 762.00,416.00              747.89,420.09 732.71,422.68 718.00,423.00 Z            M 585.00,485.00            C 585.00,514.29 597.05,538.91 614.00,562.00              621.24,559.23 633.45,549.78 653.00,543.00              645.99,521.96 642.00,507.41 642.00,485.00              642.00,485.00 585.00,485.00 585.00,485.00 Z            M 652.00,485.00            C 652.00,500.09 653.86,510.52 657.63,525.00              658.42,528.05 660.40,537.17 663.42,538.34              665.53,539.16 674.26,536.56 677.00,536.00              686.27,534.11 698.58,532.43 708.00,532.00              708.00,532.00 708.00,485.00 708.00,485.00              708.00,485.00 652.00,485.00 652.00,485.00 Z            M 718.00,485.00            C 718.00,485.00 718.00,532.00 718.00,532.00              728.32,532.47 738.87,533.94 749.00,536.00              751.74,536.56 760.47,539.16 762.58,538.34              765.60,537.17 767.58,528.05 768.37,525.00              772.14,510.52 774.00,500.09 774.00,485.00              774.00,485.00 718.00,485.00 718.00,485.00 Z            M 784.00,485.00            C 784.00,507.41 780.01,521.96 773.00,543.00              792.55,549.78 804.76,559.23 812.00,562.00              828.95,538.91 841.00,514.29 841.00,485.00              841.00,485.00 784.00,485.00 784.00,485.00 Z            M 667.00,549.00            C 670.64,561.75 684.07,579.90 692.73,590.00              697.18,595.19 701.73,601.03 708.00,604.00              708.00,604.00 708.00,542.00 708.00,542.00              698.52,542.21 675.44,545.46 667.00,549.00 Z            M 718.00,542.00            C 718.00,542.00 718.00,604.00 718.00,604.00              724.27,601.03 728.82,595.19 733.27,590.00              741.51,580.38 756.68,560.36 759.00,548.00              759.00,548.00 718.00,542.00 718.00,542.00 Z            M 622.00,569.00            C 624.51,574.30 633.16,580.77 638.00,584.25              654.39,596.05 674.98,604.30 695.00,607.00              695.00,607.00 677.21,586.00 677.21,586.00              669.69,576.45 661.82,563.18 657.00,552.00              641.20,557.48 636.03,561.16 622.00,569.00 Z            M 769.00,552.00            C 764.18,563.18 756.31,576.45 748.79,586.00              748.79,586.00 731.00,607.00 731.00,607.00              751.02,604.30 771.61,596.05 788.00,584.25              792.84,580.77 801.49,574.30 804.00,569.00              789.97,561.16 784.80,557.48 769.00,552.00 Z            M 1317.00,578.00            C 1317.00,578.00 1318.00,579.00 1318.00,579.00              1318.00,579.00 1318.00,578.00 1318.00,578.00              1318.00,578.00 1317.00,578.00 1317.00,578.00 Z"
     style="fill:#ffffff;fill-opacity:1" />
  <path
     style="fill:#ffffff;fill-opacity:1;stroke:#c5c1c4;stroke-width:0.55622995;stroke-miterlimit:4;stroke-dasharray:none;stroke-opacity:1"
     d="m 1272.0937,1102.6959 c -21.3694,-27.7082 -80.5739,-83.8141 -108.4648,-102.78798 -55.9107,-38.03545 -107.6534,-56.67257 -157.3413,-56.67257 -24.55312,0 -55.16988,8.18486 -146.21727,39.08867 -133.66414,45.36898 -216.62467,71.87048 -255.87884,81.73978 -73.49701,18.4786 -132.6376,23.3537 -155.789,12.8421 -13.6835,-6.2128 -17.60658,-12.4283 -17.60658,-27.8947 0,-11.6876 8.34643,-34.4255 140.40442,-382.50026 33.07913,-87.18904 74.04739,-195.4453 91.04057,-240.56945 16.99318,-45.12416 31.10683,-82.35533 31.36367,-82.73593 0.25684,-0.38061 14.64975,0.44806 31.98424,1.84149 58.19419,4.67792 123.41354,-3.73295 192.01402,-24.76266 16.00302,-4.90578 55.37823,-18.95584 87.50047,-31.22236 91.9074,-35.09664 127.0909,-41.76822 160.1761,-30.37292 21.7177,7.48012 61.0878,27.92959 91.3197,47.43294 14.4225,9.30429 28.1892,16.91442 30.5927,16.91139 2.4035,-0.003 15.0079,-7.58334 28.0097,-16.84514 30.3845,-21.64414 79.7915,-45.85571 102.2756,-50.11946 34.179,-6.48148 47.7788,-3.3106 164.778,38.41887 111.5113,39.77215 160.2218,51.18318 221.0382,51.78096 22.9445,0.22552 49.2264,-0.52438 58.4042,-1.66646 l 16.6869,-2.07651 47.1384,124.4471 c 25.9262,68.4459 65.1432,171.379 87.1491,228.74022 54.1587,141.17199 114.4715,301.75906 119.0772,317.05108 10.5643,35.076 7.1928,55.8622 -10.8444,66.8602 -16.8754,10.2895 -78.7157,5.934 -141.5149,-9.9669 -45.3989,-11.4952 -83.5098,-24.5132 -178.8776,-61.1016 -101.9537,-39.1151 -131.1788,-48.85366 -170.9002,-56.94836 -35.7003,-7.27527 -81.3973,-7.77454 -107.9288,-1.17918 -62.5334,15.54499 -132.462,62.25754 -201.7222,134.75114 l -33.9615,35.5471 z m -663.3042,-92.2204 c 8.41298,-2.9759 49.08729,-18.82059 90.38737,-35.21046 183.77718,-72.9317 247.87536,-90.9038 323.90403,-90.81744 76.6565,0.0871 145.017,24.38809 201.3044,71.56045 11.6948,9.80097 22.5202,17.81994 24.0565,17.81994 4.0402,0 3.8213,-565.06848 -0.2261,-583.94118 -2.3082,-10.76288 -6.3425,-17.7152 -17.1269,-29.5151 -24.4529,-26.75526 -54.4616,-38.29254 -99.4431,-38.2323 -37.001,0.0496 -59.5531,5.82038 -127.9329,32.73664 -62.24264,24.50046 -70.8068,27.34621 -109.85545,36.50336 -27.15701,6.3685 -38.4618,7.34878 -100.66341,8.72897 -60.98583,1.35321 -70.3009,2.13707 -71.84569,6.04579 -22.90381,57.95299 -165.57624,445.39259 -188.00716,510.55012 -23.09145,67.07619 -24.47694,85.11571 -7.35826,95.80651 14.36704,8.9723 54.47408,7.9865 82.80667,-2.0353 z m 1440.382,3.8103 c 19.8501,-10.2649 18.4867,-31.4058 -6.6298,-102.80304 -30.9087,-87.86236 -163.6323,-447.80658 -186.3468,-505.36966 -1.5631,-3.9611 -10.4388,-4.71595 -70.4528,-5.99175 -92.485,-1.96608 -115.0146,-6.76612 -211.8936,-45.145 -67.7208,-26.82777 -90.7328,-32.74472 -127.9329,-32.89471 -31.2519,-0.12602 -46.7471,3.29996 -71.3786,15.7817 -19.0458,9.65123 -41.0048,34.11187 -45.0519,50.18433 -3.7072,14.72263 -4.5255,579.32185 -0.848,585.11479 1.649,2.59749 3.9805,1.62458 8.9962,-3.7538 13.6795,-14.66895 51.0665,-40.52986 75.8545,-52.46925 49.2611,-23.7271 86.3486,-32.34553 139.3668,-32.38616 75.2814,-0.0576 128.8226,14.23445 289.3748,77.24496 139.489,54.74399 144.6128,56.40059 174.6553,56.47089 16.0625,0.038 27.1584,-1.3313 32.2868,-3.9833 z"
     id="path4482"
     inkscape:connector-curvature="0"
     transform="matrix(0.75000227,0,0,0.75000227,-0.00379469,0)" />
  <path
     style="fill:#ffffff;fill-opacity:1;stroke:#c5c1c4;stroke-width:0.55622995;stroke-miterlimit:4;stroke-dasharray:none;stroke-opacity:1"
     d="m 1274.0406,1103.8725 c -15.9759,-20.7077 -78.9274,-81.9125 -100.6565,-97.8636 -38.7889,-28.47444 -85.5242,-50.84651 -122.4414,-58.61226 -25.2957,-5.32112 -60.32904,-5.25245 -83.30712,0.16325 -9.89984,2.33333 -81.86209,25.36245 -159.91611,51.17583 -202.06307,66.82468 -256.26003,80.71228 -317.27633,81.29968 -53.14924,0.5117 -65.60809,-10.9772 -53.82324,-49.6329 6.55893,-21.5141 63.11879,-172.72717 178.67959,-477.70077 l 78.95504,-208.36824 19.14806,1.17259 c 36.23526,2.21897 92.00989,0.1833 119.51935,-4.3622 44.5612,-7.36305 87.19105,-19.73219 159.05857,-46.1512 126.71439,-46.58105 146.09579,-48.88303 199.45989,-23.69035 13.7667,6.49913 39.955,20.7986 58.1962,31.7766 18.2413,10.97801 35.1479,19.96002 37.5703,19.96002 2.4224,0 14.7471,-6.92454 27.3883,-15.38786 50.3604,-33.71656 94.1337,-51.85053 125.1609,-51.85053 24.6422,0 35.7076,3.07046 142.4358,39.52352 136.5702,46.64557 178.4767,55.11635 255.8658,51.71936 l 40.3267,-1.77014 110.6566,291.33286 c 151.2986,398.33374 144.3369,379.04864 145.9299,404.24794 1.286,20.3423 1.0271,21.483 -6.8843,30.3374 -10.5126,11.7656 -26.6645,14.2829 -68.9139,10.7402 -62.3896,-5.2315 -111.4329,-19.5041 -268.1326,-78.0317 -113.9759,-42.57016 -152.6248,-54.04257 -193.0152,-57.29393 -52.0826,-4.19258 -88.2036,2.3555 -131.2507,23.7934 -47.1585,23.48542 -81.1715,49.59353 -139.3084,106.93183 l -41.9681,41.3917 z m -677.76628,-88.8894 c 6.11853,-1.5333 50.5474,-18.1696 98.73082,-36.96959 178.25387,-69.55024 225.06332,-83.92837 295.83268,-90.86873 53.02938,-5.20058 111.16748,3.5802 158.12598,23.88232 28.0912,12.14498 46.3873,23.28829 74.256,45.22569 12.2798,9.66636 23.6345,17.5752 25.2326,17.5752 2.0065,0 2.6715,-91.00692 2.1489,-294.10659 -0.8559,-332.63833 1.6657,-299.88006 -25.0274,-325.12529 -18.9258,-17.89929 -31.5935,-24.38347 -58.4898,-29.93905 -49.1881,-10.16007 -76.9325,-4.30282 -195.27999,41.22638 -18.3146,7.04576 -48.35102,16.6276 -66.7476,21.29297 -30.7406,7.79581 -39.41468,8.71233 -107.14883,11.32154 -40.53526,1.56148 -74.55322,3.68187 -75.59546,4.71198 -4.26993,4.22018 -172.38823,460.06004 -196.08966,531.68197 -15.24537,46.0691 -15.77038,67.8838 -1.85319,77.0027 13.37375,8.7628 44.01075,10.0787 71.90495,3.0885 z m 1460.34948,-5.8505 c 8.4543,-9.8362 8.8592,-26.25931 1.3183,-53.47163 -10.6397,-38.39483 -197.2645,-547.0285 -202.7045,-552.45801 -1.036,-1.03395 -34.423,-3.23615 -74.1935,-4.89377 -94.0755,-3.92105 -111.4768,-7.47204 -194.6805,-39.72744 -60.8521,-23.59042 -90.6532,-32.76548 -117.5167,-36.18057 -48.4547,-6.15994 -90.7124,5.57696 -118.4165,32.88977 -24.8925,24.54089 -22.6192,-6.6913 -23.4593,322.29361 -0.41,160.5834 -0.1137,293.61647 0.6586,295.62908 0.9573,2.49466 6.7019,-0.74941 18.0491,-10.19269 103.0987,-85.79962 221.3745,-99.25265 381.1329,-43.35112 16.0611,5.62001 64.8703,23.99698 108.4648,40.83771 156.4852,60.45086 148.0405,57.85936 185.8877,57.04606 27.7144,-0.5955 28.9949,-0.8996 35.4596,-8.421 z"
     id="path4484"
     inkscape:connector-curvature="0"
     transform="matrix(0.75000227,0,0,0.75000227,-0.00379469,0)" />
</svg>
