<?xml version="1.0" encoding="UTF-8" standalone="no"?>
<svg
   xmlns:dc="http://purl.org/dc/elements/1.1/"
   xmlns:cc="http://creativecommons.org/ns#"
   xmlns:rdf="http://www.w3.org/1999/02/22-rdf-syntax-ns#"
   xmlns:svg="http://www.w3.org/2000/svg"
   xmlns="http://www.w3.org/2000/svg"
   xmlns:sodipodi="http://sodipodi.sourceforge.net/DTD/sodipodi-0.dtd"
   xmlns:inkscape="http://www.inkscape.org/namespaces/inkscape"
   width="100"
   height="125"
   viewBox="0 0 74.999947 93.750291"
   version="1.1"
   id="svg3"
   sodipodi:docname="lesen.svg"
   inkscape:version="0.92.1 r15371"
   inkscape:export-filename="C:\Sascha\arbeit\Projekte\language College\Medien\Webbilder\Icons\kursicons\FortbildungLogoKursD.png"
   inkscape:export-xdpi="96"
   inkscape:export-ydpi="96">
  <metadata
     id="metadata9">
    <rdf:RDF>
      <cc:Work
         rdf:about="">
        <dc:format>image/svg+xml</dc:format>
        <dc:type
           rdf:resource="http://purl.org/dc/dcmitype/StillImage" />
        <dc:title></dc:title>
      </cc:Work>
    </rdf:RDF>
  </metadata>
  <defs
     id="defs7" />
  <sodipodi:namedview
     pagecolor="#ffffff"
     bordercolor="#666666"
     borderopacity="1"
     objecttolerance="10"
     gridtolerance="10"
     guidetolerance="10"
     inkscape:pageopacity="0"
     inkscape:pageshadow="2"
     inkscape:window-width="1366"
     inkscape:window-height="705"
     id="namedview5"
     showgrid="false"
     inkscape:zoom="4.0679968"
     inkscape:cx="28.159171"
     inkscape:cy="60.902164"
     inkscape:window-x="-8"
     inkscape:window-y="-8"
     inkscape:window-maximized="1"
     inkscape:current-layer="flowRoot830"
     units="px" />
  <g
     aria-label="1"
     transform="matrix(0.11249575,0,0,0.11249575,-6.9899432,-63.485999)"
     style="font-style:normal;font-weight:normal;font-size:40px;line-height:1.25;font-family:sans-serif;letter-spacing:0px;word-spacing:0px;fill:#d8d5d7;fill-opacity:1;stroke:#000000;stroke-opacity:1"
     id="flowRoot830">
    <path
       d="M 179.64303,1256.0857 V 1154.0661 795.78298 716.83924 c 0.0367,-21.90996 14.13702,-29.11203 34.00652,-29.14847 h 315.77499 52.22429 c 8.61095,0 20.12456,-0.68014 27.93394,3.25491 12.87391,6.50983 15.76443,18.80075 15.78875,31.96616 v 426.29626 80.1583 c 0,10.6634 1.25096,29.5856 -2.86629,38.8646 -5.06453,11.4286 -12.0359,13.4689 -22.63865,17.0032 v 0 l -287.841,1.2145 h -91.08891 -10.69056 l -6.3127,-2.429 v 0 c -16.23813,-0.8016 -24.2661,-12.6067 -24.29038,-27.934 z M 205.14792,743.55864 V 1211.1486 H 598.65207 V 743.55864 Z m 202.82467,522.77766 c 12.71603,-3.3399 17.68339,-20.9019 9.24248,-30.7759 -5.75677,-6.7163 -13.2868,-6.8257 -21.38765,-5.7204 -24.15678,7.7972 -13.03182,43.1276 12.14517,36.4963 z"
       id="Auswahl"
       inkscape:connector-curvature="0"
       style="fill:#ffffff;fill-opacity:1;stroke:#000000;stroke-width:1.21451914"
       sodipodi:nodetypes="ccccccscccscccccccccccccccccc" />
    <path
       d="m 319.80812,842.40935 c 0,0 14.4653,0.65751 14.4653,0.65751 12.94642,0.1512 28.96345,4.14886 39.45078,11.84841 4.91162,3.60313 15.08334,14.51784 16.76001,20.36978 0.39451,1.3741 0.33533,3.16261 0.33533,4.60249 0,0 0,178.18626 0,178.18626 0,0 -11.17772,-5.0761 -11.17772,-5.0761 -6.15432,-2.6037 -12.56508,-4.6354 -19.06789,-6.1806 -23.63101,-5.6085 -40.69349,-4.5237 -64.43629,-4.5237 0,0 0,-199.88405 0,-199.88405 0,0 23.67048,0 23.67048,0 z m 92.16362,37.47819 c -0.11178,-1.45965 -0.17096,-3.19539 0,-4.60249 1.45311,-4.53027 7.73893,-11.79586 11.06594,-15.1228 10.96732,-10.96738 23.64418,-15.08346 38.79327,-16.4839 0,0 6.57514,-0.61149 6.57514,-0.61149 0,0 14.46529,-0.65751 14.46529,-0.65751 0,0 18.41035,0 18.41035,0 1.40051,0.0131 3.62293,-0.17098 4.58944,1.05202 1.23616,1.56487 0.42084,8.5016 0.59835,10.78318 0,0 0,26.30059 0,26.30059 0,0 0,18.41029 0,18.41029 0,0 0,53.91613 0,53.91613 0,0 0,26.9581 0,26.9581 0,0 0,39.45084 0,39.45084 0,0 0,20.3434 0,20.3434 -0.46681,3.1955 -3.35333,2.6629 -5.84531,2.6695 -22.88143,0.046 -38.37245,-0.7956 -61.14869,5.1812 -9.04739,2.3802 -12.59795,3.8793 -21.04042,7.5877 0,0 -6.46336,3.0115 -6.46336,3.0115 0,0 0,-178.18626 0,-178.18626 z m 132.70585,-16.4378 c 2.63009,0.011 5.44424,-0.0197 7.89017,1.08492 2.32102,1.05202 4.30017,3.12972 5.25353,5.49029 0.76269,1.88051 0.66409,3.93188 0.66409,5.9176 0,0 0,168.98085 0,168.98085 0,0 0,47.9986 0,47.9986 -0.0131,9.764 -4.61573,12.4796 -13.80779,12.4926 0,0 -99.94197,0 -99.94197,0 -9.35642,0.019 -5.69407,3.7348 -16.43784,12.0457 -7.29182,5.6415 -17.7397,8.9422 -26.95803,8.9422 -9.03423,0 -19.77798,-3.3402 -26.95804,-8.837 -10.415,-7.9757 -7.16032,-12.1311 -16.43782,-12.1509 0,0 -87.44926,0 -87.44926,0 0,0 -11.83523,0 -11.83523,0 -5.85187,-0.011 -11.97331,-0.6443 -14.03791,-7.2325 -0.4997,-1.5847 -0.42739,-3.5966 -0.42739,-5.2601 0,0 0,-176.21364 0,-176.21364 0,0 0,-41.42331 0,-41.42331 0.046,-9.50762 5.24696,-11.82208 13.80779,-11.83531 0,0 17.09534,0 17.09534,0 0,0 0,153.85816 0,153.85816 0,0 0,27.6155 0,27.6155 0,3.9912 -0.58519,9.7116 1.46625,13.1437 3.22181,5.3916 8.65288,5.9177 14.31407,5.9243 0,0 38.13575,0 38.13575,0 0,0 6.57513,0.6049 6.57513,0.6049 15.37267,1.2295 29.68672,4.4646 43.39587,11.7433 4.56972,2.426 8.60027,5.4901 12.49276,8.8763 2.72211,2.3737 4.76039,4.9248 8.54767,5.51 5.45736,0.8416 8.76464,-3.4784 12.49274,-6.6213 5.97023,-5.0233 11.86811,-8.5674 19.06789,-11.5589 25.64301,-10.6387 53.75169,-8.5149 80.87412,-8.5543 10.72404,-0.019 15.7606,-4.0766 15.78031,-15.1228 0,0 0,-185.41886 0,-185.41886 0,0 16.4378,0 16.4378,0 z"
       id="Auswahl-8"
       inkscape:connector-curvature="0"
       style="fill:#ffffff;fill-opacity:1;stroke:#000000;stroke-width:0.65751308" />
  </g>
</svg>
