<?xml version="1.0" encoding="UTF-8" standalone="no"?>
<svg
   xmlns:dc="http://purl.org/dc/elements/1.1/"
   xmlns:cc="http://creativecommons.org/ns#"
   xmlns:rdf="http://www.w3.org/1999/02/22-rdf-syntax-ns#"
   xmlns:svg="http://www.w3.org/2000/svg"
   xmlns="http://www.w3.org/2000/svg"
   xmlns:sodipodi="http://sodipodi.sourceforge.net/DTD/sodipodi-0.dtd"
   xmlns:inkscape="http://www.inkscape.org/namespaces/inkscape"
   width="100"
   height="125"
   viewBox="0 0 74.999947 93.750291"
   version="1.1"
   id="svg3"
   sodipodi:docname="LogoAbschluesse1.svg"
   inkscape:version="0.92.1 r15371">
  <metadata
     id="metadata9">
    <rdf:RDF>
      <cc:Work
         rdf:about="">
        <dc:format>image/svg+xml</dc:format>
        <dc:type
           rdf:resource="http://purl.org/dc/dcmitype/StillImage" />
        <dc:title></dc:title>
      </cc:Work>
    </rdf:RDF>
  </metadata>
  <defs
     id="defs7" />
  <sodipodi:namedview
     pagecolor="#ffffff"
     bordercolor="#666666"
     borderopacity="1"
     objecttolerance="10"
     gridtolerance="10"
     guidetolerance="10"
     inkscape:pageopacity="0"
     inkscape:pageshadow="2"
     inkscape:window-width="1366"
     inkscape:window-height="705"
     id="namedview5"
     showgrid="false"
     inkscape:zoom="2.8765081"
     inkscape:cx="7.6451066"
     inkscape:cy="77.256012"
     inkscape:window-x="-8"
     inkscape:window-y="-8"
     inkscape:window-maximized="1"
     inkscape:current-layer="flowRoot830"
     units="px" />
  <g
     aria-label="1"
     transform="matrix(0.11249575,0,0,0.11249575,-6.9899432,-63.485999)"
     style="font-style:normal;font-weight:normal;font-size:40px;line-height:1.25;font-family:sans-serif;letter-spacing:0px;word-spacing:0px;fill:#d8d5d7;fill-opacity:1;stroke:#000000;stroke-opacity:1"
     id="flowRoot830">
    <path
       d="M 102.82356,1342.1884 V 1205.2811 724.47562 618.53542 c 0.0492,-29.40252 18.97146,-39.0675 45.63575,-39.1164 h 423.76082 70.08348 c 11.55564,0 27.00657,-0.91273 37.48653,4.368 17.27641,8.736 21.15541,25.23006 21.18804,42.89765 v 572.07703 107.5701 c 0,14.31 1.67875,39.7031 -3.84647,52.1552 -6.79645,15.3369 -16.15183,18.0749 -30.38041,22.8178 v 0 l -386.27423,1.6298 H 158.23841 143.89199 l -8.47146,-3.2596 v 0 c -21.79109,-1.0757 -32.56439,-16.9178 -32.59697,-37.4866 z M 137.05037,654.39208 V 1281.8841 H 665.12146 V 654.39208 Z m 190.69237,302.72821 c 13.33218,-6.87798 43.97328,-24.43146 57.0447,-28.13124 8.9316,-2.10246 11.8164,2.2329 22.81788,0 8.8827,-2.28174 23.8773,-11.00148 16.93416,-21.90516 -7.80696,-12.24012 -28.13118,-13.7559 -39.71946,-6.56826 -11.4741,7.08984 -7.3506,14.0982 -13.54404,18.9714 l -20.71536,10.77336 -42.37608,21.18804 -24.44772,12.98988 c -5.11776,0.86382 -13.15291,-4.20504 -17.92836,-6.38904 l -44.00593,-20.47086 -32.59698,-15.49992 c -3.43896,-1.76022 -9.5835,-4.59618 -10.6755,-8.6382 -1.87434,-6.99204 16.9341,-14.13078 22.08444,-16.42884 l 76.60291,-36.75312 74.97306,-35.13955 c 11.19708,-5.59038 35.62848,-18.41729 47.2656,-18.98771 12.74544,-0.61938 40.19208,13.29953 52.15518,19.49297 l 91.27159,43.50067 61.93428,29.3862 c 4.57986,2.16768 18.92256,7.87218 19.00404,13.49514 0.0978,6.1119 -14.1471,11.80008 -19.00404,14.1471 l -63.56412,29.9892 -52.15518,25.42566 -40.74625,18.75959 c -11.7186,5.8511 -34.76466,19.0203 -47.2656,19.0203 -9.64872,0 -28.392,-9.5998 -37.48656,-14.1308 l -26.07756,-12.94095 c -16.02144,-7.35066 -21.6444,-8.11668 -37.48656,-18.43362 7.18764,-8.14926 18.20544,-11.8164 27.70746,-16.72224 z m -44.00592,23.24166 -13.03884,68.45365 -8.73594,-16.2985 -1.0431,-21.188 v -39.11641 z m 83.12226,41.15365 c 9.95838,4.9385 21.41622,12.1587 32.59698,12.5662 15.02724,0.5378 29.02764,-9.5999 42.37608,-15.7281 l 58.67461,-27.90299 c 12.84318,-6.42162 25.18116,-14.26122 39.11634,-18.23802 v 47.26561 c 0,4.3354 0.17934,8.8338 -1.0431,13.0388 -4.368,15.2391 -21.75846,30.0707 -34.81356,38.1222 -28.26156,17.4393 -60.89119,30.2826 -94.53127,30.3315 h -19.55814 c -17.94468,-0.032 -35.28624,-4.4822 -52.15518,-10.3333 -4.64508,-1.6135 -15.45102,-5.2807 -18.6129,-8.6545 -4.10724,-4.3843 -5.54148,-20.3242 -6.51936,-26.648 l -10.72446,-63.56411 z m -71.02878,11.0015 9.8769,76.603 c 0.48894,2.8685 0.81492,5.3133 0,8.1492 -2.11884,5.7207 -10.36584,14.8641 -17.08086,12.5172 -14.79901,-5.1829 -10.83847,-22.2312 -9.90949,-33.7053 l 11.53933,-99.42079 c 3.3249,8.13289 4.28652,26.41989 5.57412,35.85669 z m 113.40486,323.4273 c 17.06454,-4.4821 23.7306,-28.0497 12.40314,-41.3004 -7.72542,-9.0131 -17.8305,-9.1598 -28.7016,-7.6766 -32.4177,10.4636 -17.48832,57.876 16.29846,48.977 z"
       id="Auswahl"
       inkscape:connector-curvature="0"
       style="fill:none;fill-opacity:1;stroke:#000000;stroke-width:1.6298492"
       sodipodi:nodetypes="ccccccscccscccccccccccccccccccccccccccccccccccccccscccccccccccccccscccccccccccccccccccc" />
  </g>
</svg>
