<?xml version="1.0" encoding="UTF-8" standalone="no"?>
<svg
   xmlns:dc="http://purl.org/dc/elements/1.1/"
   xmlns:cc="http://creativecommons.org/ns#"
   xmlns:rdf="http://www.w3.org/1999/02/22-rdf-syntax-ns#"
   xmlns:svg="http://www.w3.org/2000/svg"
   xmlns="http://www.w3.org/2000/svg"
   xmlns:sodipodi="http://sodipodi.sourceforge.net/DTD/sodipodi-0.dtd"
   xmlns:inkscape="http://www.inkscape.org/namespaces/inkscape"
   width="300"
   height="200"
   viewBox="0 0 225.00021 150"
   version="1.1"
   id="svg3"
   sodipodi:docname="praesens_icon.svg"
   inkscape:version="0.92.1 r15371">
  <metadata
     id="metadata9">
    <rdf:RDF>
      <cc:Work
         rdf:about="">
        <dc:format>image/svg+xml</dc:format>
        <dc:type
           rdf:resource="http://purl.org/dc/dcmitype/StillImage" />
        <dc:title></dc:title>
      </cc:Work>
    </rdf:RDF>
  </metadata>
  <defs
     id="defs7" />
  <sodipodi:namedview
     pagecolor="#ffffff"
     bordercolor="#666666"
     borderopacity="1"
     objecttolerance="10"
     gridtolerance="10"
     guidetolerance="10"
     inkscape:pageopacity="0"
     inkscape:pageshadow="2"
     inkscape:window-width="1366"
     inkscape:window-height="705"
     id="namedview5"
     showgrid="false"
     inkscape:zoom="1.2092551"
     inkscape:cx="162.29009"
     inkscape:cy="120.92655"
     inkscape:window-x="-8"
     inkscape:window-y="-8"
     inkscape:window-maximized="1"
     inkscape:current-layer="svg3"
     units="px"
     fit-margin-top="10"
     fit-margin-right="10"
     fit-margin-bottom="10"
     fit-margin-left="10" />
  <path
     inkscape:connector-curvature="0"
     style="fill:none;stroke:#000000;stroke-width:3.75000167;stroke-miterlimit:4;stroke-dasharray:none"
     id="Auswahl"
     d="m 135.66225,94.152347 c 2.16886,-1.57598 3.95872,-3.32082 6.75422,-3.62476 6.01125,-0.66041 10.03001,6.033772 6.39024,11.121943 -0.94559,1.32458 -3.85366,3.39962 -5.26454,4.40525 -3.35834,2.4015 -9.80862,6.2514 -13.50843,8.13133 -1.79362,0.91182 -4.84427,2.62664 -6.75421,2.84052 -3.0394,0.34522 -6.06004,-1.22702 -7.30581,-4.05628 0,0 -3.44841,-16.510311 -3.44841,-16.510311 -0.39775,-1.838642 -1.18574,-4.791742 -2.13883,-6.371472 -0.53659,-0.89306 -1.30582,-1.93246 -2.49156,-1.49719 -0.51407,0.18762 -1.06191,0.73546 -1.43339,1.12571 -2.56285,2.72044 -2.5516,6.604122 -2.70919,10.120062 0,0 -0.35272,3.752341 -0.35272,3.752341 0,0 0.33396,4.12758 0.33396,4.12758 0.3227,4.7317 0.75797,9.34708 2.31519,13.88366 0,0 1.8349,4.50281 1.8349,4.50281 1.46716,2.95685 3.18573,5.54596 1.83114,9.00562 -1.89494,4.85178 -8.87804,6.28142 -12.667912,0.75047 -4.79174,-6.99436 -7.89868,-18.17259 -7.91368,-26.64163 -0.0113,-6.36397 0.46529,-11.061901 2.015,-17.260773 1.05066,-4.19136 2.85553,-7.26453 2.86304,-11.63226 0,0 0,-23.26452 0,-23.26452 0,-0.74671 0.045,-1.91369 -0.22514,-2.59287 -0.39025,-0.98686 -1.62852,-1.93245 -2.4015,-2.67541 -1.65103,-1.58725 -2.69793,-2.69794 -4.12758,-4.48781 -4.74296,-5.94746 -7.03939,-10.54408 -9.59473,-17.636 -0.75047,-2.09381 -2.86304,-10.80675 -2.70544,-12.75796 0.26266,-3.26454 3.03189,-5.97749 6.29643,-6.15009 3.2908,-0.17261 5.01688,2.11632 5.75234,5.02438 0,0 1.43339,6.75422 1.43339,6.75422 1.38086,5.03939 5.08442,12.22888 8.96434,15.7073 1.76361,1.58349 7.227012,2.44277 9.741082,2.97561 2.84053,0.60037 12.4165,2.79549 14.63414,2.67167 0,0 12.75796,-1.46717 12.75796,-1.46717 -1.09568,-4.67917 -5.43714,-14.40149 -5.6135,-18.76171 -0.06,-1.45591 0.0113,-2.89681 0.92683,-4.10881 2.24014,-2.9606 7.23451,-2.28518 9.41837,0.37148 1.03565,1.26078 1.28706,2.62288 1.80488,4.11256 0,0 2.97561,9.38086 2.97561,9.38086 0,0 4.2439,12.00749 4.2439,12.00749 0.25515,2.55535 -1.34334,5.51594 -3.62477,6.69043 -1.32457,0.67917 -3.75234,0.73546 -5.25327,0.91932 0,0 -9.38086,1.36961 -9.38086,1.36961 -1.47467,0.13508 -5.93621,0.42401 -6.74671,1.64352 -0.46154,0.69794 -0.38274,2.06004 -0.38274,2.88555 0,0 0,23.26452 0,23.26452 0.007,5.94372 2.86304,11.47842 3.75234,17.260782 2.33771,-0.86304 6.91181,-3.789872 9.00562,-5.309572 z m -18.38647,-75.75228 c 8.8255,5.68855 5.00562,20.34145 -6.37899,19.88366 -12.251392,-0.49531 -14.251392,-18.01499 -2.2514,-21.19322 2.97561,-0.43152 6.02626,-0.36773 8.63039,1.30956 z" />
</svg>
