<?xml version="1.0" encoding="UTF-8" standalone="no"?>
<svg
   xmlns:dc="http://purl.org/dc/elements/1.1/"
   xmlns:cc="http://creativecommons.org/ns#"
   xmlns:rdf="http://www.w3.org/1999/02/22-rdf-syntax-ns#"
   xmlns:svg="http://www.w3.org/2000/svg"
   xmlns="http://www.w3.org/2000/svg"
   xmlns:sodipodi="http://sodipodi.sourceforge.net/DTD/sodipodi-0.dtd"
   xmlns:inkscape="http://www.inkscape.org/namespaces/inkscape"
   width="100"
   height="125"
   viewBox="0 0 74.999947 93.750291"
   version="1.1"
   id="svg3"
   sodipodi:docname="schreiben.svg"
   inkscape:version="0.92.1 r15371"
   inkscape:export-filename="C:\Sascha\arbeit\Projekte\language College\Medien\Webbilder\Icons\kursicons\FortbildungLogoKursD.png"
   inkscape:export-xdpi="96"
   inkscape:export-ydpi="96">
  <metadata
     id="metadata9">
    <rdf:RDF>
      <cc:Work
         rdf:about="">
        <dc:format>image/svg+xml</dc:format>
        <dc:type
           rdf:resource="http://purl.org/dc/dcmitype/StillImage" />
        <dc:title></dc:title>
      </cc:Work>
    </rdf:RDF>
  </metadata>
  <defs
     id="defs7" />
  <sodipodi:namedview
     pagecolor="#ffffff"
     bordercolor="#666666"
     borderopacity="1"
     objecttolerance="10"
     gridtolerance="10"
     guidetolerance="10"
     inkscape:pageopacity="0"
     inkscape:pageshadow="2"
     inkscape:window-width="1366"
     inkscape:window-height="705"
     id="namedview5"
     showgrid="false"
     inkscape:zoom="4.0679968"
     inkscape:cx="38.293955"
     inkscape:cy="60.902164"
     inkscape:window-x="-8"
     inkscape:window-y="-8"
     inkscape:window-maximized="1"
     inkscape:current-layer="flowRoot830"
     units="px" />
  <g
     aria-label="1"
     transform="matrix(0.11249575,0,0,0.11249575,-6.9899432,-63.485999)"
     style="font-style:normal;font-weight:normal;font-size:40px;line-height:1.25;font-family:sans-serif;letter-spacing:0px;word-spacing:0px;fill:#d8d5d7;fill-opacity:1;stroke:#000000;stroke-opacity:1"
     id="flowRoot830">
    <path
       d="M 174.7264,1261.0023 V 1158.9827 800.69961 721.75587 c 0.0367,-21.90996 14.13702,-29.11203 34.00652,-29.14847 h 315.77499 52.22429 c 8.61095,0 20.12456,-0.68014 27.93394,3.25491 12.87391,6.50983 15.76443,18.80075 15.78875,31.96616 v 426.29623 80.1583 c 0,10.6634 1.25096,29.5856 -2.86629,38.8646 -5.06453,11.4286 -12.0359,13.4689 -22.63865,17.0032 v 0 l -287.841,1.2145 h -91.08891 -10.69056 l -6.3127,-2.429 v 0 c -16.23813,-0.8016 -24.2661,-12.6067 -24.29038,-27.934 z M 200.23129,748.47527 V 1216.0652 H 593.73544 V 748.47527 Z m 202.82467,522.77763 c 12.71603,-3.3399 17.68339,-20.9019 9.24248,-30.7759 -5.75677,-6.7163 -13.2868,-6.8257 -21.38765,-5.7204 -24.15678,7.7972 -13.03182,43.1276 12.14517,36.4963 z"
       id="Auswahl"
       inkscape:connector-curvature="0"
       style="fill:#ffffff;fill-opacity:1;stroke:#000000;stroke-width:1.21451914"
       sodipodi:nodetypes="ccccccscccscccccccccccccccccc" />
    <path
       d="m 383.94518,829.4015 c 2.22122,0.34167 4.13954,3.03669 5.50644,4.66764 0,0 10.12749,13.20302 10.12749,13.20302 10.84201,14.733 20.37149,30.14945 29.76893,45.82227 3.46385,5.77046 10.34495,16.45716 12.07688,22.52286 0,0 -24.85274,12.4263 -24.85274,12.4263 -6.97431,-12.2478 -5.10259,-14.0807 -12.42638,-12.4263 0,0 -3.10659,-8.54321 -3.10659,-8.54321 0,0 3.88324,-1.55334 3.88324,-1.55334 0,0 -9.74694,-23.29936 -9.74694,-23.29936 0,0 -14.05733,-38.05582 -14.05733,-38.05582 0,0 -3.37841,-12.4264 -3.37841,-12.4264 1.63872,-0.92414 4.26379,-2.64058 6.20541,-2.33766 z m 23.8897,114.95169 c 0,0 -9.21882,-17.8629 -9.21882,-17.8629 0,0 -10.46145,-20.96955 -10.46145,-20.96955 -1.297,-4.0696 1.94163,-5.71613 4.17061,-4.59773 2.16685,1.07953 6.43842,10.53918 7.80531,13.14088 0,0 19.35408,38.0557 19.35408,38.0557 6.08115,12.1547 12.05358,19.059 1.74744,19.4163 0,0 -13.39717,-27.1827 -13.39717,-27.1827 z m 30.48345,-22.5228 c 0,0 14.99707,30.2892 14.99707,30.2892 0,0 27.31472,55.91871 27.31472,55.91871 0,0 23.70332,48.9289 23.70332,48.9289 -5.18802,-0.466 -8.34899,-2.2445 -13.20303,-3.79 -2.74157,-0.8698 -5.94136,-1.6931 -7.71212,-4.1473 0,0 -13.45154,-27.0118 -13.45154,-27.0118 0,0 -25.52067,-51.25891 -25.52067,-51.25891 0,0 -13.48262,-27.1826 -13.48262,-27.1826 -2.28335,-4.6677 -5.44429,-9.7859 -6.6248,-14.7564 0,0 13.97967,-6.9898 13.97967,-6.9898 z m 38.18779,34.9492 c 0,0 10.74104,10.8031 10.74104,10.8031 0,0 12.42638,9.8945 12.42638,9.8945 11.09053,8.551 22.97325,17.6688 31.27563,29.00791 9.09454,12.4264 14.15053,33.1861 18.42986,48.1521 1.76299,6.1743 3.85217,15.3931 3.88324,21.7462 0,0 -0.99411,13.203 -0.99411,13.203 0,0 0.99411,10.0965 0.99411,10.0965 0.0311,7.3781 0.10873,14.9193 -6.98983,19.2996 -2.50081,1.5456 -4.27157,1.9339 -6.98983,0.8932 2.48527,-1.5766 4.72201,-3.0988 6.5549,-5.4676 9.10232,-11.7507 -2.89689,-26.8488 -10.66337,-35.6948 -4.07742,-4.6599 -6.96654,-7.1917 -12.20116,-10.4614 -2.92797,-1.8251 -6.6015,-3.1998 -8.69068,-5.988 -3.02894,-4.0463 -6.45395,-13.7622 -8.93147,-18.4997 0,0 -23.5169,-47.37551 -23.5169,-47.37551 0,0 -17.0785,-34.9493 -17.0785,-34.9493 -2.79593,-5.6772 -9.4518,-17.956 -10.90414,-23.2994 12.27105,4.2871 14.47673,9.5916 22.65483,18.6396 z m -54.02365,-14.7097 c 0,0 3.60365,5.3899 3.60365,5.3899 0,0 6.21318,12.4264 6.21318,12.4264 0,0 17.64546,35.7257 17.64546,35.7257 0,0 12.44966,25.62951 12.44966,25.62951 -3.85994,1.0252 -7.50242,1.3436 -10.8653,3.7279 -4.62106,3.2853 -7.92958,10.1663 -4.68319,15.5562 1.60766,2.664 6.57044,5.7162 9.3353,7.2074 11.10609,6.0034 22.92666,10.1429 34.94918,13.8786 13.50592,4.1939 26.80213,7.8286 37.98586,17.1096 8.10821,6.7335 12.15455,12.9545 14.19713,23.2917 1.18051,5.9413 0.008,12.1235 -5.59963,15.4708 -4.82298,2.8814 -10.88861,2.4542 -16.29408,2.3921 0,0 -13.97967,-1.5456 -13.97967,-1.5456 -1.92608,-0.039 -5.17247,-0.1942 -6.82674,0.7845 -3.72015,2.2057 -3.71238,9.9954 -10.29059,14.3058 -5.60739,3.6736 -17.21828,2.9979 -20.82971,-3.4639 -2.36877,-4.2249 -1.47562,-8.6907 -0.88537,-13.1874 -10.21292,5.0405 -19.40068,11.8051 -30.28928,15.533 -2.90467,0.9941 -8.6907,3.0211 -11.64973,2.7105 -5.3977,-0.567 -7.96065,-7.4248 -8.83825,-12.0303 -0.75336,-3.9454 0.14756,-7.518 -5.14142,-6.9433 -7.16846,0.769 -14.53109,2.7649 -21.74615,0.9164 -2.62507,-0.6756 -5.96466,-1.7862 -7.41699,-4.2326 -1.07954,-1.8329 -1.09507,-3.992 -1.12614,-6.0501 -0.0466,-4.0075 -0.1864,-8.2791 2.65614,-11.4867 3.65801,-4.1317 10.54688,-4.8152 15.20677,-7.9296 0,0 -16.30961,-1.4834 -16.30961,-1.4834 0,0 -22.52281,-1.6542 -22.52281,-1.6542 0,0 -6.98983,0 -6.98983,0 -11.89824,-1.2349 -31.82705,-4.5823 -43.49229,-7.3471 0,0 -34.17253,-12.2322 -34.17253,-12.2322 -7.58784,-2.4853 -15.39317,-4.0852 -23.29943,-5.0249 -3.61143,-0.4272 -7.78202,0.4661 -10.70221,-2.1047 -3.52601,-3.1143 -4.04637,-11.4945 -4.05412,-15.9757 -0.0232,-13.7777 0.84654,-27.4856 2.55518,-41.1623 0,0 4.43464,-27.95941 4.43464,-27.95941 5.01715,1.2194 10.39157,0.7767 15.53297,0.7767 13.53699,0 16.79891,-0.1554 30.28927,-2.0038 0,0 6.98985,-0.6678 6.98985,-0.6678 0,0 11.64974,-2.4155 11.64974,-2.4155 0,0 32.61921,-6.8267 32.61921,-6.8267 0,0 24.85274,-5.289 24.85274,-5.289 0,0 23.29945,-6.0112 23.29945,-6.0112 0,0 10.86531,-2.9125 10.86531,-2.9125 3.96868,-0.2407 5.18801,2.8659 6.71024,5.9337 0,0 8.3878,16.3096 8.3878,16.3096 2.53188,4.3647 5.16471,7.8286 10.46922,4.4812 5.52973,-3.495 3.16095,-6.9354 0.92421,-11.471 0,0 -10.17409,-20.1463 -10.17409,-20.1463 0,0 4.357,0 4.357,0 z m 104.37376,183.05591 c 1.84841,-0.01 5.14918,-0.8309 6.75684,0 2.05035,0.8 2.58624,4.4036 2.99009,6.3996 2.0659,10.2284 0.41162,8.6674 0.93974,13.9797 0,0 0,5.4365 0,5.4365 -2.88135,-1.5222 -2.97456,-2.2601 -5.38216,-4.3726 0,0 -5.17248,-4.2482 -5.17248,-4.2482 -3.91431,-3.9842 -9.22659,-12.6827 -11.78175,-17.7852 4.4735,0.5902 7.00535,1.0252 11.64972,0.5902 z"
       id="Auswahl-6"
       inkscape:connector-curvature="0"
       style="fill:#ffffff;fill-opacity:1;stroke:#000000;stroke-width:0.77664828" />
  </g>
</svg>
