<?xml version="1.0" encoding="UTF-8" standalone="no"?>
<svg
   xmlns:dc="http://purl.org/dc/elements/1.1/"
   xmlns:cc="http://creativecommons.org/ns#"
   xmlns:rdf="http://www.w3.org/1999/02/22-rdf-syntax-ns#"
   xmlns:svg="http://www.w3.org/2000/svg"
   xmlns="http://www.w3.org/2000/svg"
   xmlns:sodipodi="http://sodipodi.sourceforge.net/DTD/sodipodi-0.dtd"
   xmlns:inkscape="http://www.inkscape.org/namespaces/inkscape"
   width="300"
   height="200"
   viewBox="0 0 225.00021 150"
   version="1.1"
   id="svg3"
   sodipodi:docname="vergangenheit_icon.svg"
   inkscape:version="0.92.1 r15371">
  <metadata
     id="metadata9">
    <rdf:RDF>
      <cc:Work
         rdf:about="">
        <dc:format>image/svg+xml</dc:format>
        <dc:type
           rdf:resource="http://purl.org/dc/dcmitype/StillImage" />
        <dc:title></dc:title>
      </cc:Work>
    </rdf:RDF>
  </metadata>
  <defs
     id="defs7" />
  <sodipodi:namedview
     pagecolor="#ffffff"
     bordercolor="#666666"
     borderopacity="1"
     objecttolerance="10"
     gridtolerance="10"
     guidetolerance="10"
     inkscape:pageopacity="0"
     inkscape:pageshadow="2"
     inkscape:window-width="1366"
     inkscape:window-height="705"
     id="namedview5"
     showgrid="false"
     inkscape:zoom="1.2092551"
     inkscape:cx="162.29009"
     inkscape:cy="120.92655"
     inkscape:window-x="-8"
     inkscape:window-y="-8"
     inkscape:window-maximized="1"
     inkscape:current-layer="svg3"
     units="px"
     fit-margin-top="10"
     fit-margin-right="10"
     fit-margin-bottom="10"
     fit-margin-left="10" />
  <path
     d="m 119.67853,54.54889 c -2.51832,1.292463 -3.92181,1.283583 -6.6622,1.252493 -10.65952,-0.124357 -16.24244,-11.876479 -10.67729,-20.430734 2.59826,-3.992882 5.73839,-5.34309 10.23315,-6.009308 14.86112,-0.781697 19.57797,18.787397 7.10634,25.187549 z m -32.4227,30.97034 c -2.87807,1.630011 -6.34686,0.315344 -6.79544,-3.069057 -0.48413,-3.681971 5.66287,-8.638644 8.12787,-11.103659 0,0 7.99466,-7.994642 7.99466,-7.994642 1.82986,-1.829881 3.73526,-3.91737 6.21803,-4.827866 1.83433,-0.675104 4.25493,-0.501888 6.21805,-0.501888 0,0 10.65953,0 10.65953,0 1.82545,0.0042 3.14456,-0.05331 4.8856,0.657337 2.32734,0.950469 4.02842,2.931363 5.77391,4.672417 0,0 7.55049,7.55049 7.55049,7.55049 0,0 7.70594,7.994639 7.70594,7.994639 2.82034,4.108355 -0.67509,7.919132 -4.15276,7.381713 -2.14523,-0.33311 -3.86409,-2.36286 -5.32976,-3.828541 0,0 -8.43878,-8.438782 -8.43878,-8.438782 0,0 0,9.771224 0,9.771224 0,0 -28.42538,0 -28.42538,0 0,0 0,-9.771224 0,-9.771224 -2.15412,2.15411 -10.05991,10.415236 -11.99196,11.507839 z m 19.98659,11.143625 c 0.8572,0.87498 2.41616,2.17188 2.06972,3.553185 -0.31535,1.26581 -5.70728,6.30244 -6.95533,7.55049 2.55384,1.82988 8.82964,7.54161 9.22492,10.65952 0.32867,2.55383 -1.25692,4.91225 -3.89516,5.21427 -3.72194,0.4175 -8.0124,-5.36084 -10.29088,-7.87916 0,0 -7.18628,-7.55049 -7.18628,-7.55049 -1.85654,-2.65599 -2.25628,-6.5556 -0.42195,-9.327075 0.82612,-1.24805 2.99356,-3.30445 4.13057,-4.441461 0,0 5.32976,-5.329764 5.32976,-5.329764 2.46056,1.763265 5.77835,5.289785 7.99463,7.550485 z m 24.87222,-3.109016 c 1.41237,1.412385 4.38815,4.188296 5.28979,5.773896 3.79743,6.679965 -4.35266,12.786995 -8.39883,16.877575 -2.44725,2.47834 -5.94268,7.82143 -9.77121,7.43945 -2.8914,-0.29313 -4.21495,-2.48721 -3.94847,-5.21871 0.31535,-3.22007 6.86649,-8.69195 9.27821,-11.10367 0,0 -5.32088,-4.88561 -5.32088,-4.88561 0,0 -1.69662,-2.664885 -1.69662,-2.664885 0,0 2.57605,-3.55317 2.57605,-3.55317 0,0 7.10634,-7.106345 7.10634,-7.106345 1.9809,1.416831 3.18453,2.740387 4.88562,4.441469 z"
     id="Auswahl-9"
     inkscape:connector-curvature="0"
     style="font-style:normal;font-weight:normal;font-size:40px;line-height:1.25;font-family:sans-serif;letter-spacing:0px;word-spacing:0px;fill:none;fill-opacity:1;stroke:#000000;stroke-width:3.75000167;stroke-miterlimit:4;stroke-dasharray:none" />
</svg>
