<?xml version="1.0" encoding="UTF-8" standalone="no"?>
<svg
   xmlns:dc="http://purl.org/dc/elements/1.1/"
   xmlns:cc="http://creativecommons.org/ns#"
   xmlns:rdf="http://www.w3.org/1999/02/22-rdf-syntax-ns#"
   xmlns:svg="http://www.w3.org/2000/svg"
   xmlns="http://www.w3.org/2000/svg"
   xmlns:sodipodi="http://sodipodi.sourceforge.net/DTD/sodipodi-0.dtd"
   xmlns:inkscape="http://www.inkscape.org/namespaces/inkscape"
   width="300"
   height="200"
   viewBox="0 0 225.00021 150"
   version="1.1"
   id="svg3"
   sodipodi:docname="zukunft_icon.svg"
   inkscape:version="0.92.1 r15371">
  <metadata
     id="metadata9">
    <rdf:RDF>
      <cc:Work
         rdf:about="">
        <dc:format>image/svg+xml</dc:format>
        <dc:type
           rdf:resource="http://purl.org/dc/dcmitype/StillImage" />
        <dc:title></dc:title>
      </cc:Work>
    </rdf:RDF>
  </metadata>
  <defs
     id="defs7" />
  <sodipodi:namedview
     pagecolor="#ffffff"
     bordercolor="#666666"
     borderopacity="1"
     objecttolerance="10"
     gridtolerance="10"
     guidetolerance="10"
     inkscape:pageopacity="0"
     inkscape:pageshadow="2"
     inkscape:window-width="1366"
     inkscape:window-height="705"
     id="namedview5"
     showgrid="false"
     inkscape:zoom="0.85507246"
     inkscape:cx="-79.235869"
     inkscape:cy="87.337929"
     inkscape:window-x="-8"
     inkscape:window-y="-8"
     inkscape:window-maximized="1"
     inkscape:current-layer="svg3"
     units="px"
     fit-margin-top="10"
     fit-margin-right="10"
     fit-margin-bottom="10"
     fit-margin-left="10" />
  <path
     id="Auswahl"
     d="m 97.479868,21.609567 c 1.153437,-0.458227 3.301052,-0.312935 4.584792,-0.310142 2.58197,0.0055 4.00568,0.776752 5.74549,3.073475 0.47297,0.623078 1.42369,2.056431 0.98452,2.930975 -0.33057,0.653813 -1.98835,1.036602 -2.62782,1.265714 0,0 -7.239153,2.696272 -7.239153,2.696272 0,0 -6.756543,2.327462 -6.756543,2.327462 -1.035201,-4.93153 1.008657,-10.27658 5.308714,-11.983756 z m -5.067403,13.456228 c 0,0 11.100035,-4.188308 11.100035,-4.188308 1.40921,-0.502932 5.59828,-2.218488 6.75654,-2.285546 0,0 6.03264,0.81028 6.03264,0.81028 -0.60569,1.120419 -1.3682,1.179097 -2.41305,1.584235 0,0 -4.58481,1.676443 -4.58481,1.676443 0,0 -13.754398,5.029321 -13.754398,5.029321 -2.299632,0.868954 -5.885427,2.545396 -8.20437,2.606865 0.810783,-1.204243 3.940511,-4.540361 5.067413,-5.23329 z m 11.823945,0.841014 c 0,0 6.75655,-2.313486 6.75655,-2.313486 0.72874,3.47023 0.13272,7.367956 -2.00283,10.033495 -2.90774,3.626695 -8.04512,3.961987 -11.50061,1.268501 -1.669835,-1.29924 -2.6061,-3.062292 -3.387921,-5.155049 0,0 10.134811,-3.833461 10.134811,-3.833461 z M 85.149174,98.415687 c 0,0 0,-18.999656 0,-18.999656 0.01686,-0.469403 0.01933,-0.936012 0,-1.39703 0,0 -0.808374,-2.23525 -0.808374,-2.23525 -0.56224,-2.450406 -0.06518,-5.347854 2.280337,-6.163729 0.550172,-0.189995 1.11965,-0.257047 1.689132,-0.212343 0,0 3.378274,0.229111 3.378274,0.229111 4.394165,-0.06152 8.802817,-2.092756 11.802247,-5.842397 1.04966,-1.313207 0.55741,-1.341156 -0.25097,-3.657433 -0.38367,-1.092479 -0.64911,-2.453188 -0.6829,-3.632286 -0.1665,-6.035185 5.05536,-11.212592 10.12517,-10.871717 0,0 13.99571,3.263475 13.99571,3.263475 2.31412,0.628663 5.61276,1.229383 7.47805,2.967293 1.0931,1.019839 1.95458,2.721418 2.7364,4.082136 0,0 3.98878,6.705764 3.98878,6.705764 0,0 2.48061,3.911685 2.48061,3.911685 1.42128,1.967029 2.77019,3.146125 2.97529,5.867552 0.30888,4.056984 -3.22866,8.491171 -7.35256,5.800481 -3.61234,-2.358194 -6.27152,-7.161201 -8.45774,-11.109218 -0.69498,-1.254527 -2.50958,-4.956671 -3.38793,-5.630043 -0.66359,-0.505724 -1.61674,-0.67057 -2.39134,-0.796308 0,0 4.65961,10.058644 4.65961,10.058644 0.72391,1.550702 3.0332,6.641502 3.39275,8.102799 0.26543,1.08969 0.38849,4.610206 0.39333,5.867539 0,0 0.23166,3.073475 0.23166,3.073475 0,0 0,2.514658 0,2.514658 0,0 0.25095,5.029316 0.25095,5.029316 0,0 0.24129,5.588135 0.24129,5.588135 0,0 0.48262,9.49983 0.48262,9.49983 0,0 0.2413,5.02935 0.2413,5.02935 0,0 0.24132,7.54398 0.24132,7.54398 0,0 0.2413,2.79405 0.2413,2.79405 0,0 0,2.51466 0,2.51466 0,0 0.23165,2.79408 0.23165,2.79408 -0.0772,2.41966 -1.28375,4.898 -3.36862,5.64402 -0.76736,0.27382 -1.84358,0.2347 -2.65436,0.22352 -5.19048,-0.0811 -4.91297,-5.71386 -5.07707,-10.05865 0,0 -0.23164,-3.35287 -0.23164,-3.35287 0,0 -0.24131,-7.8234 -0.24131,-7.8234 0,0 -0.2413,-4.1911 -0.2413,-4.1911 0,0 -0.24132,-6.14695 -0.24132,-6.14695 0,0 -0.2413,-3.91169 -0.2413,-3.91169 0,0 -0.2413,-6.705761 -0.2413,-6.705761 -2.88602,1.631731 -6.88203,5.722231 -9.1696,8.382191 -0.73116,0.84941 -2.43719,2.73819 -2.59161,3.9117 -0.0989,0.75719 1.00141,5.34784 1.23306,6.42636 0,0 2.29482,10.61747 2.29482,10.61747 0.34265,1.5032 1.13654,4.70239 1.21374,6.14694 0.31612,6.01842 -6.13638,7.52442 -9.13821,4.41183 -1.50817,-1.56467 -1.71328,-3.39201 -2.15245,-5.52947 0,0 -1.68672,-7.54398 -1.68672,-7.54398 0,0 -2.41305,-11.17628 -2.41305,-11.17628 -0.23407,-1.11203 -1.025542,-5.23886 -0.948332,-6.14693 0.195455,-2.28836 2.041442,-4.448163 3.269692,-6.14697 2.53853,-3.506539 8.90416,-10.511278 12.36688,-12.573282 0,0 -6.03262,-13.411539 -6.03262,-13.411539 0,0 -4.82611,3.825082 -4.82611,3.825082 -4.07564,2.626423 -8.385345,3.744053 -13.030474,3.718906 -2.485446,-0.01396 -3.132144,-0.896897 -3.136973,2.514654 0,0 0,54.204929 0,54.204929 0,0 -2.919789,0 -2.919789,0 0,0 0,-37.999333 0,-37.999333 z"
     inkscape:connector-curvature="0"
     style="fill:none;stroke:#000000;stroke-width:3.75000175;stroke-miterlimit:4;stroke-dasharray:none" />
</svg>
